<svg width="22" height="23" viewBox="0 0 22 23" fill="none" xmlns="http://www.w3.org/2000/svg">
<path d="M19.3515 10.9941L19.3671 11.0416C19.6544 10.9473 19.8391 10.7612 19.8936 10.5375C19.9481 10.3138 19.8692 10.0656 19.6564 9.85387C19.2769 9.46811 18.8942 9.08843 18.5109 8.70824C18.3831 8.58145 18.2553 8.45461 18.1275 8.32747C18.0942 8.29436 18.0612 8.25902 18.017 8.21174C18.0075 8.20159 17.9975 8.1909 17.9869 8.17957C17.9899 8.17754 17.9929 8.17552 17.9959 8.17351C18.0489 8.13752 18.1004 8.10257 18.144 8.05921L18.1503 8.05297C19.2039 7.01032 20.2522 5.97293 21.2951 4.92462L21.2956 4.92416C21.4017 4.81462 21.5004 4.69311 21.5969 4.57426C21.6368 4.52509 21.6763 4.47637 21.7159 4.42915L21.7276 4.41522L21.7276 4.39704L21.7276 4.39565C21.7276 4.28722 21.7276 4.17561 21.7163 4.06904L21.7148 4.05493L21.7061 4.04371C21.6687 3.99535 21.6337 3.94502 21.5978 3.89339C21.5817 3.87021 21.5654 3.84677 21.5486 3.82312C21.4953 3.74811 21.4384 3.6729 21.3722 3.60696C20.6022 2.83007 19.8267 2.05865 19.0457 1.2927C18.9795 1.22693 18.9055 1.17039 18.8305 1.11723C18.7997 1.0954 18.7694 1.07455 18.7393 1.05387C18.6945 1.02303 18.6502 0.992568 18.6058 0.959809L18.5925 0.950061L18.5761 0.950061L18.5755 0.950061L18.5748 0.950061L18.5742 0.950061L18.5735 0.950061L18.5729 0.950061L18.5723 0.950061L18.5716 0.950061L18.571 0.950061L18.5703 0.950061L18.5697 0.950061L18.569 0.950061L18.5684 0.950061L18.5677 0.950061L18.5671 0.950061L18.5665 0.950061L18.5658 0.950061L18.5652 0.950061L18.5645 0.950061L18.5639 0.950061L18.5632 0.950061L18.5626 0.950061L18.5619 0.950061L18.5613 0.950061L18.5607 0.950061L18.56 0.950061L18.5594 0.950061L18.5587 0.950061L18.5581 0.950061L18.5574 0.950061L18.5568 0.950061L18.5561 0.950061L18.5555 0.950061L18.5549 0.950061L18.5542 0.950061L18.5536 0.950061L18.5529 0.950061L18.5523 0.950061L18.5516 0.950061L18.551 0.950061L18.5503 0.950061L18.5497 0.950061L18.5491 0.950061L18.5484 0.950061L18.5478 0.950061L18.5471 0.950061L18.5465 0.950061L18.5458 0.950061L18.5452 0.950061L18.5445 0.950061L18.5439 0.950061L18.5433 0.950061L18.5426 0.950061L18.542 0.950061L18.5413 0.950061L18.5407 0.950061L18.54 0.950061L18.5394 0.950061L18.5387 0.950061L18.5381 0.950061L18.5375 0.950061L18.5368 0.950061L18.5362 0.950061L18.5355 0.950061L18.5349 0.950061L18.5342 0.950061L18.5336 0.950061L18.5329 0.950061L18.5323 0.950061L18.5317 0.950061L18.531 0.950061L18.5304 0.950061L18.5297 0.950061L18.5291 0.950061L18.5284 0.950061L18.5278 0.950061L18.5271 0.950061L18.5265 0.950061L18.5259 0.950061L18.5252 0.950061L18.5246 0.950061L18.5239 0.950061L18.5233 0.950061L18.5226 0.950061L18.522 0.950061L18.5213 0.950061L18.5207 0.950061L18.5201 0.950061L18.5194 0.950061L18.5188 0.950061L18.5181 0.950061L18.5175 0.950061L18.5168 0.950061L18.5162 0.950061L18.5155 0.950061L18.5149 0.950061L18.5143 0.950061L18.5136 0.950061L18.513 0.950061L18.5123 0.950061L18.5117 0.950061L18.511 0.950061L18.5104 0.950061L18.5097 0.950061L18.5091 0.950061L18.5085 0.950061L18.5078 0.950061L18.5072 0.950061L18.5065 0.950061L18.5059 0.950061L18.5052 0.950061L18.5046 0.950061L18.5039 0.950061L18.5033 0.950061L18.5027 0.950061L18.502 0.950061L18.5014 0.950061L18.5007 0.950061L18.5001 0.950061L18.4994 0.950061L18.4988 0.950061L18.4981 0.950061L18.4975 0.950061L18.4969 0.950061L18.4962 0.950061L18.4956 0.950061L18.4949 0.950061L18.4943 0.950061L18.4936 0.950061L18.493 0.950061L18.4923 0.950061L18.4917 0.950061L18.4911 0.950061L18.4904 0.950061L18.4898 0.950061L18.4891 0.950061L18.4885 0.950061L18.4878 0.950061L18.4872 0.950061L18.4865 0.950061L18.4859 0.950061L18.4853 0.950061L18.4846 0.950061L18.484 0.950061L18.4833 0.950061L18.4827 0.950061L18.482 0.950061L18.4814 0.950061L18.4807 0.950061L18.4801 0.950061L18.4795 0.950061L18.4788 0.950061L18.4782 0.950061L18.4775 0.950061L18.4769 0.950061L18.4762 0.950061L18.4756 0.950061L18.4749 0.950061L18.4743 0.950061L18.4737 0.950061L18.473 0.950061L18.4724 0.950061L18.4717 0.950061L18.4711 0.950061L18.4704 0.950061L18.4698 0.950061L18.4691 0.950061L18.4685 0.950061L18.4679 0.950061L18.4672 0.950061L18.4666 0.950061L18.4659 0.950061L18.4653 0.950061L18.4646 0.950061L18.464 0.950061L18.4633 0.950061L18.4627 0.950061L18.4621 0.950061L18.4614 0.950061L18.4608 0.950061L18.4601 0.950061L18.4595 0.950061L18.4588 0.950061L18.4582 0.950061L18.4575 0.950061L18.4569 0.950061L18.4563 0.950061L18.4556 0.950061L18.455 0.950061L18.4543 0.950061L18.4537 0.950061L18.453 0.950061L18.4524 0.950061L18.4517 0.950061L18.4511 0.950061L18.4505 0.950061L18.4498 0.950061L18.4492 0.950061L18.4485 0.950061L18.4479 0.950061L18.4472 0.950061L18.4466 0.950061L18.4459 0.950061L18.4453 0.950061L18.4447 0.950061L18.444 0.950061L18.4434 0.950061L18.4427 0.950061L18.4421 0.950061L18.4414 0.950061L18.4408 0.950061L18.4401 0.950061L18.4395 0.950061L18.4389 0.950061L18.4382 0.950061L18.4376 0.950061L18.4369 0.950061L18.4363 0.950061L18.4356 0.950061L18.435 0.950061L18.4343 0.950061L18.4337 0.950061L18.4331 0.950061L18.4324 0.950061L18.4318 0.950061L18.4311 0.950061L18.4305 0.950061L18.4298 0.950061L18.4292 0.950061L18.4285 0.950061L18.4279 0.950061L18.4273 0.950061L18.4266 0.950061L18.426 0.950061L18.4253 0.950061L18.4247 0.950061L18.424 0.950061L18.4234 0.950061L18.4227 0.950061L18.4221 0.950061L18.4215 0.950061L18.4208 0.950061L18.4202 0.950061L18.4195 0.950061L18.4189 0.950061L18.4182 0.950061L18.4176 0.950061L18.4169 0.950061L18.4163 0.950061L18.4157 0.950061L18.415 0.950061L18.4144 0.950061L18.4137 0.950061L18.4131 0.950061L18.4124 0.950061L18.4118 0.950061L18.4111 0.950061L18.4105 0.950061L18.4099 0.950061L18.4092 0.950061L18.4086 0.950061L18.4079 0.950061L18.4073 0.950061L18.4066 0.950061L18.406 0.950061L18.4053 0.950061L18.4047 0.950061L18.4041 0.950061L18.4034 0.950061L18.4028 0.950061L18.4021 0.950061L18.4015 0.950061L18.4008 0.950061L18.4002 0.950061L18.3995 0.950061L18.3989 0.950061L18.3983 0.950061L18.3976 0.950061L18.397 0.950061L18.3963 0.950061L18.3957 0.950061L18.395 0.950061L18.3944 0.950061L18.3937 0.950061L18.3931 0.950061L18.3925 0.950061L18.3918 0.950061L18.3912 0.950061L18.3905 0.950061L18.3899 0.950061L18.3892 0.950061L18.3886 0.950061L18.3879 0.950061L18.3873 0.950061L18.3867 0.950061L18.386 0.950061L18.3854 0.950061L18.3847 0.950061L18.3841 0.950061L18.3834 0.950061L18.3828 0.950061L18.3821 0.950061L18.3815 0.950061L18.3809 0.950061L18.3802 0.950061L18.3796 0.950061L18.3789 0.950061L18.3783 0.950061L18.3776 0.950061L18.377 0.950061L18.3763 0.950061L18.3757 0.950061L18.3751 0.950061L18.3744 0.950061L18.3738 0.950061L18.3731 0.950061L18.3725 0.950061L18.3718 0.950061L18.3712 0.950061L18.3705 0.950061L18.3699 0.950061L18.3693 0.950061L18.3686 0.950061L18.368 0.950061L18.3673 0.950061L18.3667 0.950061L18.366 0.950061L18.3654 0.950061L18.3647 0.950061L18.3641 0.950061L18.3635 0.950061L18.3628 0.950061L18.3622 0.950061L18.3615 0.950061L18.3609 0.950061L18.3602 0.950061L18.3596 0.950061L18.3589 0.950061L18.3583 0.950061L18.3577 0.950061L18.357 0.950061L18.3564 0.950061L18.3557 0.950061L18.3551 0.950061L18.3544 0.950061L18.3538 0.950061L18.3531 0.950061L18.3525 0.950061L18.3519 0.950061L18.3512 0.950061L18.3506 0.950061L18.3499 0.950061L18.3493 0.950061L18.3486 0.950061L18.348 0.950061L18.3473 0.950061L18.3467 0.950061L18.3461 0.950061L18.3454 0.950061L18.3448 0.950061L18.3441 0.950061L18.3435 0.950061L18.3428 0.950061L18.3422 0.950061L18.3415 0.950061L18.3409 0.950061L18.3403 0.950061L18.3396 0.950061L18.339 0.950061L18.3383 0.950061L18.3377 0.950061L18.337 0.950061L18.3364 0.950061L18.3357 0.950061L18.3351 0.950061L18.3345 0.950061L18.3338 0.950061L18.3332 0.950061L18.3325 0.950061L18.3319 0.950061L18.3312 0.950061L18.3306 0.950061L18.3299 0.950061L18.3293 0.950061L18.3287 0.950061L18.328 0.950061L18.3274 0.950061L18.3267 0.950061L18.3261 0.950061L18.3254 0.950061L18.3248 0.950061L18.3241 0.950061L18.3235 0.950061L18.3229 0.950061L18.3222 0.950061L18.3216 0.950061L18.3209 0.950061L18.3203 0.950061L18.3196 0.950061L18.319 0.950061L18.3183 0.950061L18.3177 0.950061L18.3171 0.950061L18.3164 0.950061L18.3158 0.950061L18.3151 0.950061L18.3145 0.950061L18.3138 0.950061L18.3132 0.950061L18.3125 0.950061L18.3119 0.950061L18.3113 0.950061L18.3106 0.950061L18.31 0.950061L18.3093 0.950061L18.3087 0.950061L18.308 0.950061L18.3074 0.950061L18.3067 0.950061L18.3061 0.950061L18.3055 0.950061L18.3048 0.950061L18.3042 0.950061L18.3035 0.950061L18.3029 0.950061L18.3022 0.950061L18.3016 0.950061L18.3009 0.950061L18.3003 0.950061L18.2997 0.950061L18.299 0.950061L18.2984 0.950061L18.2977 0.950061L18.2971 0.950061L18.2964 0.950061L18.2958 0.950061L18.2952 0.950061L18.2945 0.950061L18.2939 0.950061L18.2932 0.950061L18.2926 0.950061L18.2919 0.950061L18.2913 0.950061L18.2906 0.950061L18.29 0.950061L18.2893 0.950061L18.2887 0.950061L18.2881 0.950061L18.2874 0.950061L18.2868 0.950061L18.2861 0.950061L18.2855 0.950061L18.2848 0.950061L18.2842 0.950061L18.2836 0.950061L18.2829 0.950061L18.2823 0.950061L18.2816 0.950061L18.281 0.950061L18.2803 0.950061L18.2797 0.950061L18.279 0.950061L18.2784 0.950061L18.2778 0.950061L18.2771 0.950061L18.2765 0.950061L18.2758 0.950061L18.2752 0.950061L18.2745 0.950061L18.2739 0.950061L18.2732 0.950061L18.2726 0.950061L18.272 0.950061L18.2713 0.950061L18.2707 0.950061L18.27 0.950061L18.2694 0.950061L18.2687 0.950061L18.2681 0.950061L18.2674 0.950061L18.2668 0.950061L18.2662 0.950061L18.2655 0.950061L18.2649 0.950061L18.2642 0.950061L18.2636 0.950061L18.2629 0.950061L18.2623 0.950061L18.2616 0.950061L18.261 0.950061L18.2604 0.950061L18.2597 0.950061L18.2591 0.950061L18.2584 0.950061L18.2578 0.950061L18.2571 0.950061L18.2565 0.950061L18.2558 0.950061L18.2552 0.950061L18.2546 0.950061L18.2539 0.950061L18.2533 0.950061L18.2526 0.950061L18.252 0.950061L18.2513 0.950061L18.2507 0.950061L18.25 0.950061L18.2494 0.950061L18.2488 0.950061L18.2481 0.950061L18.2475 0.950061L18.2468 0.950061L18.2462 0.950061L18.2281 0.950061L18.2143 0.961567C18.1657 1.00178 18.1154 1.04167 18.0646 1.082C17.9464 1.17567 17.8251 1.27179 17.7161 1.38026C16.9201 2.16382 16.1303 2.95049 15.3399 3.73782C15.0763 4.0004 14.8126 4.26306 14.5485 4.5257C14.5096 4.56447 14.4671 4.6033 14.4202 4.64567C14.4024 4.62846 14.3855 4.61251 14.3693 4.59724L14.3654 4.59362C14.3406 4.57027 14.3176 4.54857 14.2946 4.5257L13.5358 3.77081L12.7769 3.01593L12.7767 3.0157C12.5563 2.79933 12.3047 2.71487 12.0784 2.76531C11.8518 2.81582 11.6646 2.99854 11.567 3.28698L11.5669 3.28717C11.1092 4.65756 10.6505 6.02887 10.1917 7.40071C9.50408 9.45672 8.81604 11.5139 8.12999 13.5711L8.12999 13.5711L8.1298 13.5717C8.09053 13.6945 8.06043 13.8396 8.07836 13.9709C8.12703 14.3567 8.55299 14.6329 9.02923 14.4713C11.4388 13.6672 13.851 12.8685 16.264 12.0695C17.2983 11.7271 18.3328 11.3845 19.3672 11.0415L19.3515 10.9941ZM19.3515 10.9941C18.317 11.3371 17.2826 11.6796 16.2483 12.022C13.8352 12.821 11.4229 13.6198 9.01328 14.4239L17.9453 8.20826C17.9575 8.22127 17.9689 8.23349 17.9797 8.24504C18.0243 8.29279 18.0582 8.32914 18.0922 8.36292C18.2201 8.49019 18.3481 8.61711 18.4759 8.74395C18.8591 9.12413 19.2416 9.50353 19.6209 9.88909C20.0279 10.2939 19.9014 10.8136 19.3515 10.9941ZM12.5394 4.66016C12.5492 4.66873 12.5585 4.67685 12.5674 4.68467C12.6005 4.71358 12.6288 4.73827 12.6569 4.76617L13.8942 5.99696L13.8945 5.99725C14.0677 6.1668 14.2473 6.25767 14.4326 6.25767C14.6178 6.25767 14.7974 6.1668 14.9707 5.99725L14.971 5.99696L16.64 4.33676L18.3089 2.67656C18.3331 2.65251 18.3587 2.62836 18.3849 2.60366L18.3852 2.60339C18.3991 2.59035 18.4131 2.57716 18.4269 2.56388C18.8015 2.94326 19.1739 3.31608 19.5485 3.69112C19.7286 3.87139 19.9092 4.05218 20.0908 4.23445C20.0593 4.26786 20.0224 4.30458 19.9816 4.34518C19.613 4.7119 19.2443 5.07803 18.8758 5.44399C18.1396 6.17513 17.4041 6.90553 16.6711 7.63831C16.4801 7.82828 16.376 8.01263 16.376 8.20428C16.376 8.39596 16.4802 8.58034 16.6712 8.77034L17.881 9.97377C17.9156 10.0082 17.9472 10.0424 17.9887 10.0872C17.9897 10.0883 17.9906 10.0893 17.9916 10.0904C15.255 10.9961 12.5597 11.8915 9.80752 12.8076C10.7286 10.0694 11.6289 7.3828 12.5394 4.66016Z" fill="#C4C4C4" stroke="#C4C4C4" stroke-width="0.1"/>
<path d="M1.3706 13.3289C1.17646 13.3261 1.00495 13.3525 0.860054 13.4283C0.714015 13.5046 0.599645 13.6286 0.516022 13.8122L0.511523 13.8221L0.511523 13.8329L0.511523 13.8336L0.511523 13.8342L0.511523 13.8349L0.511523 13.8355L0.511523 13.8361L0.511523 13.8368L0.511523 13.8374L0.511523 13.8381L0.511523 13.8387L0.511523 13.8394L0.511523 13.84L0.511523 13.8406L0.511523 13.8413L0.511523 13.8419L0.511523 13.8426L0.511523 13.8432L0.511523 13.8438L0.511523 13.8445L0.511523 13.8451L0.511523 13.8458L0.511523 13.8464L0.511523 13.847L0.511523 13.8477L0.511523 13.8483L0.511523 13.849L0.511523 13.8496L0.511523 13.8502L0.511523 13.8509L0.511523 13.8515L0.511523 13.8522L0.511523 13.8528L0.511523 13.8535L0.511523 13.8541L0.511523 13.8547L0.511523 13.8554L0.511523 13.856L0.511523 13.8567L0.511523 13.8573L0.511523 13.8579L0.511523 13.8586L0.511523 13.8592L0.511523 13.8599L0.511523 13.8605L0.511523 13.8611L0.511523 13.8618L0.511523 13.8624L0.511523 13.8631L0.511523 13.8637L0.511523 13.8644L0.511523 13.865L0.511523 13.8656L0.511523 13.8663L0.511523 13.8669L0.511523 13.8676L0.511523 13.8682L0.511523 13.8688L0.511523 13.8695L0.511523 13.8701L0.511523 13.8708L0.511523 13.8714L0.511523 13.872L0.511523 13.8727L0.511523 13.8733L0.511523 13.874L0.511523 13.8746L0.511523 13.8752L0.511523 13.8759L0.511523 13.8765L0.511523 13.8772L0.511523 13.8778L0.511523 13.8785L0.511523 13.8791L0.511523 13.8797L0.511523 13.8804L0.511523 13.881L0.511523 13.8817L0.511523 13.8823L0.511523 13.8829L0.511523 13.8836L0.511523 13.8842L0.511523 13.8849L0.511523 13.8855L0.511523 13.8861L0.511523 13.8868L0.511523 13.8874L0.511523 13.8881L0.511523 13.8887L0.511523 13.8894L0.511523 13.89L0.511523 13.8906L0.511523 13.8913L0.511523 13.8919L0.511523 13.8926L0.511523 13.8932L0.511523 13.8938L0.511523 13.8945L0.511523 13.8951L0.511523 13.8958L0.511523 13.8964L0.511523 13.897L0.511523 13.8977L0.511523 13.8983L0.511523 13.899L0.511523 13.8996L0.511523 13.9002L0.511523 13.9009L0.511523 13.9015L0.511523 13.9022L0.511523 13.9028L0.511523 13.9035L0.511523 13.9041L0.511523 13.9047L0.511523 13.9054L0.511523 13.906L0.511523 13.9067L0.511523 13.9073L0.511523 13.9079L0.511523 13.9086L0.511523 13.9092L0.511523 13.9099L0.511523 13.9105L0.511523 13.9111L0.511523 13.9118L0.511523 13.9124L0.511523 13.9131L0.511523 13.9137L0.511523 13.9144L0.511523 13.915L0.511523 13.9156L0.511523 13.9163L0.511523 13.9169L0.511523 13.9176L0.511523 13.9182L0.511523 13.9188L0.511523 13.9195L0.511523 13.9201L0.511523 13.9208L0.511523 13.9214L0.511523 13.922L0.511523 13.9227L0.511523 13.9233L0.511523 13.924L0.511523 13.9246L0.511523 13.9252L0.511523 13.9259L0.511523 13.9265L0.511523 13.9272L0.511523 13.9278L0.511523 13.9285L0.511523 13.9291L0.511523 13.9297L0.511523 13.9304L0.511523 13.931L0.511523 13.9317L0.511523 13.9323L0.511523 13.9329L0.511523 13.9336L0.511523 13.9342L0.511523 13.9349L0.511523 13.9355L0.511523 13.9361L0.511523 13.9368L0.511523 13.9374L0.511523 13.9381L0.511523 13.9387L0.511523 13.9394L0.511523 13.94L0.511523 13.9406L0.511523 13.9413L0.511523 13.9419L0.511523 13.9426L0.511523 13.9432L0.511523 13.9438L0.511523 13.9445L0.511523 13.9451L0.511523 13.9458L0.511523 13.9464L0.511523 13.947L0.511523 13.9477L0.511523 13.9483L0.511523 13.949L0.511523 13.9496L0.511523 13.9502L0.511523 13.9509L0.511523 13.9515L0.511523 13.9522L0.511523 13.9528L0.511523 13.9535L0.511523 13.9541L0.511523 13.9547L0.511523 13.9554L0.511523 13.956L0.511523 13.9567L0.511523 13.9573L0.511523 13.9579L0.511523 13.9586L0.511523 13.9592L0.511523 13.9599L0.511523 13.9605L0.511523 13.9611L0.511523 13.9618L0.511523 13.9624L0.511523 13.9631L0.511523 13.9637L0.511523 13.9644L0.511523 13.965L0.511523 13.9656L0.511523 13.9663L0.511523 13.9669L0.511523 13.9676L0.511523 13.9682L0.511523 13.9688L0.511523 13.9695L0.511523 13.9701L0.511523 13.9708L0.511523 13.9714L0.511523 13.972L0.511523 13.9727L0.511523 13.9733L0.511523 13.974L0.511523 13.9746L0.511523 13.9752L0.511523 13.9759L0.511523 13.9765L0.511523 13.9772L0.511523 13.9778L0.511523 13.9785L0.511523 13.9791L0.511523 13.9797L0.511523 13.9804L0.511523 13.981L0.511523 13.9817L0.511523 13.9823L0.511523 13.9829L0.511523 13.9836L0.511523 13.9842L0.511523 13.9849L0.511523 13.9855L0.511523 13.9861L0.511523 13.9868L0.511523 13.9874L0.511523 13.9881L0.511523 13.9887L0.511523 13.9894L0.511523 13.99L0.511523 13.9906L0.511523 13.9913L0.511523 13.9919L0.511523 13.9926L0.511523 13.9932L0.511523 13.9938L0.511523 13.9945L0.511523 13.9951L0.511523 13.9958L0.511523 13.9964L0.511523 13.997L0.511523 13.9977L0.511523 13.9983L0.511523 13.999L0.511523 13.9996L0.511523 14.0003L0.511523 14.0009L0.511523 14.0015L0.511523 14.0022L0.511523 14.0028L0.511523 14.0035L0.511523 14.0041L0.511523 14.0047L0.511523 14.0054L0.511523 14.006L0.511523 14.0067L0.511523 14.0073L0.511523 14.0079L0.511523 14.0086L0.511523 14.0092L0.511523 14.0099L0.511523 14.0105L0.511523 14.0111L0.511523 14.0118L0.511523 14.0124L0.511523 14.0131L0.511523 14.0137L0.511523 14.0144L0.511523 14.015L0.511523 14.0156L0.511523 14.0163L0.511523 14.0169L0.511523 14.0176L0.511523 14.0182L0.511523 14.0188L0.511523 14.0195L0.511523 14.0201L0.511523 14.0208L0.511523 14.0214L0.511523 14.022L0.511523 14.0227L0.511523 14.0233L0.511523 14.024L0.511523 14.0246L0.511523 14.0253L0.511523 14.0259L0.511523 14.0265L0.511523 14.0272L0.511523 14.0278L0.511523 14.0285L0.511523 14.0291L0.511523 14.0297L0.511523 14.0304L0.511523 14.031L0.511523 14.0317L0.511523 14.0323L0.511523 14.0329L0.511523 14.0336L0.511523 14.0342L0.511523 14.0349L0.511523 14.0355L0.511523 14.0361L0.511523 14.0368L0.511523 14.0374L0.511523 14.0381L0.511523 14.0387L0.511523 14.0394L0.511523 14.04L0.511523 14.0406L0.511523 14.0413L0.511523 14.0419L0.511523 14.0426L0.511523 14.0432L0.511523 14.0438L0.511523 14.0445L0.511523 14.0451L0.511523 14.0458L0.511523 14.0464L0.511523 14.047L0.511523 14.0477L0.511523 14.0483L0.511523 14.049L0.511523 14.0496L0.511523 14.0503L0.511523 14.0509L0.511523 14.0515L0.511523 14.0522L0.511523 14.0528L0.511523 14.0535L0.511523 14.0541L0.511523 14.0547L0.511523 14.0554L0.511523 14.056L0.511523 14.0567L0.511523 14.0573L0.511523 14.0579L0.511523 14.0586L0.511523 14.0592L0.511523 14.0599L0.511523 14.0605L0.511523 14.0611L0.511523 14.0618L0.511523 14.0624L0.511523 14.0631L0.511523 14.0637L0.511523 14.0644L0.511523 14.065L0.511523 14.0656L0.511523 14.0663L0.511523 14.0669L0.511523 14.0676L0.511523 14.0682L0.511523 14.0688L0.511523 14.0695L0.511523 14.0701L0.511523 14.0708L0.511523 14.0714L0.511523 14.072L0.511523 14.0727L0.511523 14.0733L0.511523 14.074L0.511523 14.0746L0.511523 14.0753L0.511523 14.0759L0.511523 14.0765L0.511523 14.0772L0.511523 14.0778L0.511523 14.0785L0.511523 14.0791L0.511523 14.0797L0.511523 14.0804L0.511523 14.081L0.511523 14.0817L0.511523 14.0823L0.511523 14.0829L0.511523 14.0836L0.511523 14.0842L0.511523 14.0849L0.511523 14.0855L0.511523 14.0861L0.511523 14.0868L0.511523 14.0874L0.511523 14.0881L0.511523 14.0887L0.511523 14.0894L0.511523 14.09L0.511523 14.0906L0.511523 14.0913L0.511523 14.0919L0.511523 14.0926L0.511523 14.0932L0.511523 14.0938L0.511523 14.0945L0.511523 14.0951L0.511523 14.0958L0.511523 14.0964L0.511523 14.097L0.511523 14.0977L0.511523 14.0983L0.511523 14.099L0.511523 14.0996L0.511523 14.1003L0.511523 14.1009L0.511523 14.1015L0.511523 14.1022L0.511523 14.1028L0.511523 14.1035L0.511523 14.1041L0.511523 14.1047L0.511523 14.1054L0.511523 14.106L0.511523 14.1067L0.511523 14.1073L0.511523 14.1079L0.511523 14.1086L0.511523 14.1092L0.511523 14.1099L0.511523 14.1105L0.511523 14.1111L0.511523 14.1118L0.511523 14.1124L0.511523 14.1131L0.511523 14.1137L0.511523 14.1144L0.511523 14.115L0.511523 14.1156L0.511523 14.1163L0.511523 14.1169L0.511523 14.1176L0.511523 14.1182L0.511523 14.1188L0.511523 14.1195L0.511523 14.1201L0.511523 14.1208L0.511523 14.1214L0.511523 14.122L0.511523 14.1227L0.511523 14.1233L0.511523 14.124L0.511523 14.1246L0.511523 14.1253L0.511523 14.1259L0.511523 14.1265L0.511523 14.1272L0.511523 14.1278L0.511523 14.1285L0.511523 14.1291L0.511523 14.1297L0.511523 14.1304L0.511523 14.131L0.511523 14.1317L0.511523 14.1323L0.511523 14.1329L0.511523 14.1336L0.511523 14.1342L0.511523 14.1349L0.511523 14.1355L0.511523 14.1361L0.511523 14.1368L0.511523 14.1374L0.511523 14.1381L0.511523 14.1387L0.511523 14.1394L0.511523 14.14L0.511523 14.1406L0.511523 14.1413L0.511523 14.1419L0.511523 14.1426L0.511523 14.1432L0.511523 14.1438L0.511523 14.1445L0.511523 14.1451L0.511523 14.1458L0.511523 14.1464L0.511523 14.147L0.511523 14.1477L0.511523 14.1483L0.511523 14.149L0.511523 14.1496L0.511523 14.1503L0.511523 14.1509L0.511523 14.1515L0.511523 14.1522L0.511523 14.1528L0.511523 14.1535L0.511523 14.1541L0.511523 14.1547L0.511523 14.1554L0.511523 14.156L0.511523 14.1567L0.511523 14.1573L0.511523 14.1579L0.511523 14.1586L0.511523 14.1592L0.511523 14.1599L0.511523 14.1605L0.511523 14.1611L0.511523 14.1722L0.516146 14.1821C0.599786 14.3629 0.714084 14.4867 0.859878 14.5637C1.00467 14.6401 1.17614 14.668 1.3706 14.6652C2.18342 14.6534 2.99882 14.6557 3.81353 14.6579C4.1393 14.6588 4.46495 14.6597 4.79029 14.6597L4.79356 14.6597C4.87931 14.6597 4.97825 14.6597 5.06706 14.6361L5.06706 14.6361L5.06733 14.6361C5.39406 14.5474 5.59634 14.2396 5.55477 13.9088C5.51292 13.5757 5.23163 13.3344 4.87277 13.3344C4.53959 13.3344 4.20608 13.3353 3.87246 13.3362C3.03811 13.3384 2.20307 13.3406 1.3706 13.3289ZM1.3706 13.3289L1.36988 13.3789M1.3706 13.3289L1.36988 13.3789M1.36988 13.3789C2.20279 13.3906 3.03851 13.3884 3.87302 13.3862C4.20655 13.3853 4.53988 13.3844 4.87277 13.3844C5.20821 13.3844 5.46667 13.6087 5.50516 13.915C5.54366 14.2213 5.35669 14.5058 5.05424 14.5878C4.97176 14.6097 4.87827 14.6097 4.79029 14.6097L4.79029 14.6097C4.46525 14.6097 4.13977 14.6088 3.8141 14.6079C2.99923 14.6057 2.18315 14.6034 1.36988 14.6152C0.990449 14.6206 0.720996 14.5058 0.561523 14.1611L0.561523 13.8329C0.720996 13.4829 0.990449 13.3734 1.36988 13.3789Z" fill="#C4C4C4" stroke="#C4C4C4" stroke-width="0.1"/>
<path d="M8.42142 22.0456L8.43121 22.05L8.44196 22.05L8.44261 22.05L8.44325 22.05L8.4439 22.05L8.44454 22.05L8.44518 22.05L8.44583 22.05L8.44647 22.05L8.44712 22.05L8.44776 22.05L8.44841 22.05L8.44905 22.05L8.4497 22.05L8.45034 22.05L8.45098 22.05L8.45163 22.05L8.45227 22.05L8.45292 22.05L8.45356 22.05L8.45421 22.05L8.45485 22.05L8.4555 22.05L8.45614 22.05L8.45678 22.05L8.45743 22.05L8.45807 22.05L8.45872 22.05L8.45936 22.05L8.46001 22.05L8.46065 22.05L8.4613 22.05L8.46194 22.05L8.46258 22.05L8.46323 22.05L8.46387 22.05L8.46452 22.05L8.46516 22.05L8.46581 22.05L8.46645 22.05L8.46709 22.05L8.46774 22.05L8.46838 22.05L8.46903 22.05L8.46967 22.05L8.47032 22.05L8.47096 22.05L8.47161 22.05L8.47225 22.05L8.47289 22.05L8.47354 22.05L8.47418 22.05L8.47483 22.05L8.47547 22.05L8.47612 22.05L8.47676 22.05L8.47741 22.05L8.47805 22.05L8.47869 22.05L8.47934 22.05L8.47998 22.05L8.48063 22.05L8.48127 22.05L8.48192 22.05L8.48256 22.05L8.48321 22.05L8.48385 22.05L8.48449 22.05L8.48514 22.05L8.48578 22.05L8.48643 22.05L8.48707 22.05L8.48772 22.05L8.48836 22.05L8.489 22.05L8.48965 22.05L8.49029 22.05L8.49094 22.05L8.49158 22.05L8.49223 22.05L8.49287 22.05L8.49352 22.05L8.49416 22.05L8.4948 22.05L8.49545 22.05L8.49609 22.05L8.49674 22.05L8.49738 22.05L8.49803 22.05L8.49867 22.05L8.49932 22.05L8.49996 22.05L8.5006 22.05L8.50125 22.05L8.50189 22.05L8.50254 22.05L8.50318 22.05L8.50383 22.05L8.50447 22.05L8.50512 22.05L8.50576 22.05L8.5064 22.05L8.50705 22.05L8.50769 22.05L8.50834 22.05L8.50898 22.05L8.50963 22.05L8.51027 22.05L8.51091 22.05L8.51156 22.05L8.5122 22.05L8.51285 22.05L8.51349 22.05L8.51414 22.05L8.51478 22.05L8.51543 22.05L8.51607 22.05L8.51671 22.05L8.51736 22.05L8.518 22.05L8.51865 22.05L8.51929 22.05L8.51994 22.05L8.52058 22.05L8.52123 22.05L8.52187 22.05L8.52251 22.05L8.52316 22.05L8.5238 22.05L8.52445 22.05L8.52509 22.05L8.52574 22.05L8.52638 22.05L8.52703 22.05L8.52767 22.05L8.52831 22.05L8.52896 22.05L8.5296 22.05L8.53025 22.05L8.53089 22.05L8.53154 22.05L8.53218 22.05L8.53282 22.05L8.53347 22.05L8.53411 22.05L8.53476 22.05L8.5354 22.05L8.53605 22.05L8.53669 22.05L8.53734 22.05L8.53798 22.05L8.53862 22.05L8.53927 22.05L8.53991 22.05L8.54056 22.05L8.5412 22.05L8.54185 22.05L8.54249 22.05L8.54314 22.05L8.54378 22.05L8.54442 22.05L8.54507 22.05L8.54571 22.05L8.54636 22.05L8.547 22.05L8.54765 22.05L8.54829 22.05L8.54894 22.05L8.54958 22.05L8.55022 22.05L8.55087 22.05L8.55151 22.05L8.55216 22.05L8.5528 22.05L8.55345 22.05L8.55409 22.05L8.55474 22.05L8.55538 22.05L8.55602 22.05L8.55667 22.05L8.55731 22.05L8.55796 22.05L8.5586 22.05L8.55925 22.05L8.55989 22.05L8.56053 22.05L8.56118 22.05L8.56182 22.05L8.56247 22.05L8.56311 22.05L8.56376 22.05L8.5644 22.05L8.56505 22.05L8.56569 22.05L8.56633 22.05L8.56698 22.05L8.56762 22.05L8.56827 22.05L8.56891 22.05L8.56956 22.05L8.5702 22.05L8.57085 22.05L8.57149 22.05L8.57213 22.05L8.57278 22.05L8.57342 22.05L8.57407 22.05L8.57471 22.05L8.57536 22.05L8.576 22.05L8.57665 22.05L8.57729 22.05L8.57793 22.05L8.57858 22.05L8.57922 22.05L8.57987 22.05L8.58051 22.05L8.58116 22.05L8.5818 22.05L8.58244 22.05L8.58309 22.05L8.58373 22.05L8.58438 22.05L8.58502 22.05L8.58567 22.05L8.58631 22.05L8.58696 22.05L8.5876 22.05L8.58824 22.05L8.58889 22.05L8.58953 22.05L8.59018 22.05L8.59082 22.05L8.59147 22.05L8.59211 22.05L8.59276 22.05L8.5934 22.05L8.59404 22.05L8.59469 22.05L8.59533 22.05L8.59598 22.05L8.59662 22.05L8.59727 22.05L8.59791 22.05L8.59856 22.05L8.5992 22.05L8.59984 22.05L8.60049 22.05L8.60113 22.05L8.60178 22.05L8.60242 22.05L8.60307 22.05L8.60371 22.05L8.60435 22.05L8.605 22.05L8.60564 22.05L8.60629 22.05L8.60693 22.05L8.60758 22.05L8.60822 22.05L8.60887 22.05L8.60951 22.05L8.61015 22.05L8.6108 22.05L8.61144 22.05L8.61209 22.05L8.61273 22.05L8.61338 22.05L8.61402 22.05L8.61467 22.05L8.61531 22.05L8.61595 22.05L8.6166 22.05L8.61724 22.05L8.61789 22.05L8.61853 22.05L8.61918 22.05L8.61982 22.05L8.62047 22.05L8.62111 22.05L8.62175 22.05L8.6224 22.05L8.62304 22.05L8.62369 22.05L8.62433 22.05L8.62498 22.05L8.62562 22.05L8.62627 22.05L8.62691 22.05L8.62755 22.05L8.6282 22.05L8.62884 22.05L8.62949 22.05L8.63013 22.05L8.63078 22.05L8.63142 22.05L8.63206 22.05L8.63271 22.05L8.63335 22.05L8.634 22.05L8.63464 22.05L8.63529 22.05L8.63593 22.05L8.63658 22.05L8.63722 22.05L8.63786 22.05L8.63851 22.05L8.63915 22.05L8.6398 22.05L8.64044 22.05L8.64109 22.05L8.64173 22.05L8.64238 22.05L8.64302 22.05L8.64366 22.05L8.64431 22.05L8.64495 22.05L8.6456 22.05L8.64624 22.05L8.64689 22.05L8.64753 22.05L8.64818 22.05L8.64882 22.05L8.64946 22.05L8.65011 22.05L8.65075 22.05L8.6514 22.05L8.65204 22.05L8.65269 22.05L8.65333 22.05L8.65397 22.05L8.65462 22.05L8.65526 22.05L8.65591 22.05L8.65655 22.05L8.6572 22.05L8.65784 22.05L8.65849 22.05L8.65913 22.05L8.65977 22.05L8.66042 22.05L8.66106 22.05L8.66171 22.05L8.66235 22.05L8.663 22.05L8.66364 22.05L8.66429 22.05L8.66493 22.05L8.66557 22.05L8.66622 22.05L8.66686 22.05L8.66751 22.05L8.66815 22.05L8.6688 22.05L8.66944 22.05L8.67009 22.05L8.67073 22.05L8.67137 22.05L8.67202 22.05L8.67266 22.05L8.67331 22.05L8.67395 22.05L8.6746 22.05L8.67524 22.05L8.67588 22.05L8.67653 22.05L8.67717 22.05L8.67782 22.05L8.67846 22.05L8.67911 22.05L8.67975 22.05L8.6804 22.05L8.68104 22.05L8.68168 22.05L8.68233 22.05L8.68297 22.05L8.68362 22.05L8.68426 22.05L8.68491 22.05L8.68555 22.05L8.6862 22.05L8.68684 22.05L8.68748 22.05L8.68813 22.05L8.68877 22.05L8.68942 22.05L8.69006 22.05L8.69071 22.05L8.69135 22.05L8.692 22.05L8.69264 22.05L8.69328 22.05L8.69393 22.05L8.69457 22.05L8.69522 22.05L8.69586 22.05L8.69651 22.05L8.69715 22.05L8.6978 22.05L8.69844 22.05L8.69908 22.05L8.69973 22.05L8.70037 22.05L8.70102 22.05L8.70166 22.05L8.70231 22.05L8.70295 22.05L8.70359 22.05L8.70424 22.05L8.70488 22.05L8.70553 22.05L8.70617 22.05L8.70682 22.05L8.70746 22.05L8.70811 22.05L8.70875 22.05L8.70939 22.05L8.71004 22.05L8.71068 22.05L8.71133 22.05L8.71197 22.05L8.71262 22.05L8.71326 22.05L8.71391 22.05L8.71455 22.05L8.71519 22.05L8.71584 22.05L8.71648 22.05L8.71713 22.05L8.71777 22.05L8.71842 22.05L8.71906 22.05L8.71971 22.05L8.72035 22.05L8.72099 22.05L8.72164 22.05L8.72228 22.05L8.72293 22.05L8.72357 22.05L8.72422 22.05L8.72486 22.05L8.7255 22.05L8.72615 22.05L8.72679 22.05L8.72744 22.05L8.72808 22.05L8.72873 22.05L8.72937 22.05L8.73002 22.05L8.73066 22.05L8.7313 22.05L8.73195 22.05L8.73259 22.05L8.73324 22.05L8.73388 22.05L8.73453 22.05L8.73517 22.05L8.73582 22.05L8.73646 22.05L8.7371 22.05L8.73775 22.05L8.73839 22.05L8.73904 22.05L8.73968 22.05L8.74033 22.05L8.74097 22.05L8.74162 22.05L8.74226 22.05L8.7429 22.05L8.74355 22.05L8.74419 22.05L8.74484 22.05L8.74548 22.05L8.74613 22.05L8.74677 22.05L8.74741 22.05L8.74806 22.05L8.7487 22.05L8.74935 22.05L8.74999 22.05L8.75064 22.05L8.75128 22.05L8.75193 22.05L8.75257 22.05L8.75321 22.05L8.75386 22.05L8.7545 22.05L8.75515 22.05L8.75579 22.05L8.75644 22.05L8.75708 22.05L8.75773 22.05L8.75837 22.05L8.75901 22.05L8.75966 22.05L8.7603 22.05L8.76095 22.05L8.76159 22.05L8.76224 22.05L8.76288 22.05L8.76353 22.05L8.76417 22.05L8.76481 22.05L8.76546 22.05L8.7661 22.05L8.76675 22.05L8.76739 22.05L8.76804 22.05L8.76868 22.05L8.76932 22.05L8.76997 22.05L8.77061 22.05L8.77126 22.05L8.7719 22.05L8.78231 22.05L8.79186 22.0458C8.97679 21.9654 9.10161 21.8514 9.17841 21.7053C9.25457 21.5604 9.28113 21.3883 9.27832 21.1952C9.26654 20.3866 9.26878 19.5755 9.27103 18.7651C9.27192 18.441 9.27282 18.1171 9.27282 17.7934L9.27282 17.7901C9.27283 17.7049 9.27283 17.6064 9.24912 17.5179L9.24913 17.5179L9.24888 17.5171C9.15405 17.1869 8.85047 16.9914 8.51828 17.0327C8.18395 17.0743 7.94105 17.3538 7.94105 17.7114C7.94105 18.0428 7.94194 18.3746 7.94284 18.7064C7.94508 19.5364 7.94733 20.3671 7.93555 21.1952C7.93274 21.3884 7.9593 21.5591 8.03551 21.7033C8.1123 21.8487 8.23698 21.9624 8.42142 22.0456Z" fill="#C4C4C4" stroke="#C4C4C4" stroke-width="0.1"/>
<path d="M14.5238 19.1188L14.5243 19.104L14.5167 19.0914C14.5054 19.0727 14.4925 19.0479 14.4767 19.0172L14.4765 19.0169C14.4609 18.9867 14.4429 18.9519 14.4224 18.916C14.3818 18.8449 14.3295 18.7663 14.2611 18.7038C13.6467 18.0762 13.0228 17.4577 12.3993 16.8395C12.1917 16.6337 11.9842 16.4279 11.777 16.2218C11.727 16.1667 11.6682 16.1078 11.596 16.0657C11.3671 15.9259 11.122 15.9134 10.885 16.0547C10.6563 16.189 10.5264 16.4108 10.581 16.6767L10.5811 16.6768C10.6158 16.844 10.708 17.0277 10.8304 17.1553L10.8304 17.1553L10.8308 17.1557C11.5075 17.8452 12.1951 18.5238 12.8824 19.202L12.8824 19.202C12.9248 19.2441 12.9669 19.2864 13.009 19.3286C13.1357 19.4557 13.2623 19.5826 13.3949 19.7063L13.3949 19.7063L13.3958 19.7071C13.5036 19.8027 13.6221 19.8624 13.7483 19.8825C13.8746 19.9027 14.0053 19.8829 14.1366 19.8249L14.1366 19.8249L14.1369 19.8247C14.2608 19.769 14.3563 19.6883 14.4213 19.5709C14.4857 19.4547 14.5182 19.3064 14.5238 19.1188ZM10.8665 17.1207C10.751 17.0003 10.663 16.8253 10.63 16.6666L12.9176 19.1665C12.2302 18.4882 11.5429 17.8099 10.8665 17.1207Z" fill="#C4C4C4" stroke="#C4C4C4" stroke-width="0.1"/>
<path d="M5.8738 15.9492L5.86205 15.9492L5.85153 15.9544C5.83759 15.9614 5.8181 15.9692 5.79231 15.9795L5.79057 15.9802C5.76481 15.9906 5.73449 16.0028 5.70293 16.0174C5.64049 16.0464 5.56957 16.0863 5.5138 16.1446C4.62856 17.0088 3.74886 17.8839 2.87469 18.7644C2.64177 18.9905 2.6251 19.3457 2.7969 19.5992C3.03635 19.9563 3.53571 19.9873 3.85781 19.667C4.36725 19.1638 4.87432 18.6582 5.3821 18.1519C5.63627 17.8984 5.89061 17.6448 6.14552 17.3913L6.14553 17.3913L6.14637 17.3904C6.18554 17.3495 6.22669 17.3088 6.2683 17.2676C6.33934 17.1973 6.41173 17.1257 6.47795 17.0494L6.478 17.0494C6.66127 16.8377 6.69733 16.5814 6.57906 16.3283C6.52008 16.1993 6.4346 16.103 6.3159 16.0399C6.19824 15.9772 6.05179 15.9492 5.8738 15.9492Z" fill="#C4C4C4" stroke="#C4C4C4" stroke-width="0.1"/>
<path d="M3.40167 8.0787L3.38636 8.06992L3.36892 8.07269C3.08196 8.11837 2.84472 8.2684 2.73714 8.51215L2.73712 8.51214L2.73656 8.51351C2.68116 8.64984 2.66565 8.78437 2.69198 8.91233C2.7183 9.04024 2.78569 9.15811 2.89048 9.26239C3.7484 10.1213 4.60632 10.9747 5.46974 11.8281C5.75697 12.1138 6.17341 12.1226 6.44202 11.8554C6.71074 11.5881 6.70187 11.1736 6.42039 10.8877L6.42025 10.8876C5.56781 10.0287 4.70982 9.17519 3.84081 8.32715C3.77955 8.26628 3.70168 8.22371 3.62523 8.18707C3.60021 8.17508 3.57563 8.16383 3.55151 8.15279C3.49925 8.12888 3.44918 8.10597 3.40167 8.0787Z" fill="#C4C4C4" stroke="#C4C4C4" stroke-width="0.1"/>
</svg>
