<svg width="8" height="12" viewBox="0 0 8 12" fill="none" xmlns="http://www.w3.org/2000/svg">
<path d="M3.76443 0.353027C1.6887 0.353027 0 2.11138 0 4.27247C0 6.3527 3.41553 11.2129 3.56096 11.4187L3.69669 11.611C3.71256 11.6336 3.73784 11.6468 3.76443 11.6468C3.79143 11.6468 3.81654 11.6336 3.83258 11.611L3.96822 11.4187C4.11374 11.2129 7.52918 6.3527 7.52918 4.27247C7.52918 2.11138 5.84021 0.353027 3.76443 0.353027ZM3.76443 2.86853C4.50817 2.86853 5.11295 3.49819 5.11295 4.27247C5.11295 5.04635 4.50814 5.67641 3.76443 5.67641C3.02113 5.67641 2.41591 5.04635 2.41591 4.27247C2.41591 3.49819 3.0211 2.86853 3.76443 2.86853Z" fill="white"/>
</svg>
