<svg width="22" height="21" viewBox="0 0 22 21" fill="none" xmlns="http://www.w3.org/2000/svg">
<path d="M0.111828 9.22668C0.177923 9.64308 0.235206 10.0595 0.318927 10.4715C0.490774 11.3043 0.799219 12.0933 1.22223 12.8341C1.46458 13.2592 1.94046 13.4083 2.35025 13.1935C2.76445 12.9743 2.90986 12.4834 2.67192 12.0495C2.0374 10.9054 1.72896 9.68253 1.76861 8.37633C1.86555 5.12398 4.31108 2.31434 7.52331 1.75767C11.3128 1.10019 14.8907 3.52411 15.6442 7.25861C16.4153 11.0589 13.8288 14.8109 9.99527 15.4684C8.37373 15.7489 6.84473 15.4903 5.39504 14.7188C4.85746 14.4339 4.29345 14.6443 4.13923 15.1922C4.03348 15.556 4.19211 15.933 4.54902 16.1302C5.40385 16.608 6.32037 16.9368 7.28977 17.0946C9.82342 17.5022 12.1103 16.9192 14.1416 15.3632C14.1725 15.3369 14.2077 15.315 14.2562 15.2799C14.3135 15.3369 14.3752 15.3895 14.4325 15.4465C16.1421 17.1384 17.8518 18.8303 19.5703 20.5135C19.7553 20.6976 19.9845 20.8378 20.1916 21C20.3282 21 20.4648 21 20.6058 21C20.8966 20.8817 21.1037 20.6756 21.2226 20.3864C21.2226 20.2505 21.2226 20.1146 21.2226 19.9743C21.064 19.7727 20.9274 19.5492 20.7468 19.3694C19.0415 17.6731 17.3274 15.9856 15.6134 14.2981C15.5517 14.2367 15.4591 14.2104 15.3798 14.1666C15.4768 14.0614 15.5032 14.0263 15.5252 13.9956C16.9925 12.1371 17.6182 10.0244 17.3759 7.67502C17.2041 6.00501 16.5695 4.50595 15.4988 3.20413C14.1681 1.58234 12.4672 0.556669 10.4007 0.157796C10.0658 0.0920476 9.72648 0.0525986 9.38719 0C8.97299 0 8.5632 0 8.14901 0C8.09613 0.0131497 8.04325 0.0306825 7.99038 0.0350658C7.14436 0.100814 6.32478 0.284909 5.54486 0.618034C2.69835 1.83657 0.927003 3.94928 0.270457 6.96932C0.195549 7.30683 0.160298 7.6531 0.107422 7.99499C0.111828 8.40701 0.111828 8.81465 0.111828 9.22668Z" fill="#C4C4C4"/>
<path d="M6.69512 12.2423C5.24543 11.5629 4.15706 10.4627 3.22291 9.20035C2.99819 8.89791 3.02022 8.54287 3.25376 8.22728C3.93234 7.3068 4.71226 6.48276 5.65962 5.82966C7.40013 4.62427 9.22436 4.37443 11.1411 5.38257C12.4498 6.07074 13.4545 7.10518 14.3137 8.28426C14.5384 8.59547 14.5076 8.94175 14.2608 9.27487C13.6527 10.0945 12.9609 10.8309 12.1502 11.4489C11.1587 12.2029 10.0616 12.7025 9.10979 12.7157C8.05227 12.7157 7.35607 12.5491 6.69512 12.2423ZM9.33892 6.45646C8.75729 6.32935 8.18887 6.39948 7.64248 6.61425C6.53208 7.04381 5.72131 7.84594 4.9502 8.73135C5.70809 9.59923 6.50564 10.3882 7.5896 10.8265C8.41359 11.1597 9.23317 11.1421 10.0483 10.7871C11.0794 10.3356 11.8549 9.57731 12.5908 8.72697C11.6743 7.71006 10.7357 6.76328 9.33892 6.45646Z" fill="#C4C4C4"/>
<path d="M10.295 8.7226C10.2906 7.8591 9.59003 7.17093 8.71316 7.17531C7.84511 7.1797 7.15772 7.88102 7.16213 8.75329C7.16654 9.60364 7.87155 10.2918 8.73079 10.2918C9.60325 10.2918 10.295 9.59487 10.295 8.7226Z" fill="#C4C4C4"/>
</svg>
