<svg width="24" height="29" viewBox="0 0 24 29" fill="none" xmlns="http://www.w3.org/2000/svg">
<path d="M4.3598 28.8582C4.04572 28.7881 3.71799 28.7391 3.41074 28.6481C1.42387 28.074 0.160731 26.4986 0.0787984 24.356C-0.00996233 22.1435 0.222181 19.9659 1.04151 17.8934C1.57408 16.556 2.33878 15.4007 3.62923 14.6936C4.42125 14.2594 5.27472 14.0494 6.16915 14.0704C6.44909 14.0774 6.74951 14.2244 7.00214 14.3645C7.41863 14.5955 7.80098 14.8826 8.20382 15.1347C10.5389 16.612 12.874 16.612 15.2091 15.1277C15.53 14.9246 15.8646 14.7216 16.165 14.4905C16.7249 14.0634 17.3393 14.0074 18.0016 14.1054C19.811 14.3785 21.0878 15.3937 21.9549 17.0181C22.7264 18.4675 23.0678 20.0359 23.2249 21.6603C23.3068 22.4935 23.3409 23.3338 23.3341 24.167C23.3068 26.6666 21.634 28.5221 19.2102 28.7951C19.1487 28.8021 19.0941 28.8302 19.0326 28.8442C14.1371 28.8582 9.24847 28.8582 4.3598 28.8582Z" fill="#1E1C1C"/>
<path d="M18.2475 7.11756C18.2748 10.8915 15.2365 14.0213 11.5359 14.0283C7.84204 14.0423 4.79004 10.9125 4.79004 7.15257C4.79004 3.3506 7.75328 0.262816 11.4881 0.234809C15.2092 0.206802 18.2271 3.28058 18.2475 7.11756Z" fill="#1E1C1C"/>
</svg>
