<svg width="33" height="33" viewBox="0 0 33 33" fill="none" xmlns="http://www.w3.org/2000/svg">
<path fill-rule="evenodd" clip-rule="evenodd" d="M33 14.6667L33 0L18.3333 -6.411e-07L18.3333 14.6667L33 14.6667ZM14.6667 14.6667L14.6667 -8.01375e-07L0 -1.44248e-06L-6.411e-07 14.6667L14.6667 14.6667ZM33 18.3333L33 33L18.3333 33L18.3333 18.3333L33 18.3333ZM14.6667 25.6667C14.6667 21.6165 11.3835 18.3333 7.33333 18.3333C3.28317 18.3333 -9.44887e-07 21.6165 -1.12193e-06 25.6667C-1.29896e-06 29.7168 3.28317 33 7.33333 33C11.3835 33 14.6667 29.7168 14.6667 25.6667Z" fill="#DC0000"/>
</svg>
