<svg width="64" height="64" viewBox="0 0 64 64" fill="none" xmlns="http://www.w3.org/2000/svg">
<g opacity="0.4">
<circle cx="32" cy="32" r="32" fill="#1E1C1C"/>
<path d="M18.1816 30C17.0771 30 16.1816 30.8954 16.1816 32C16.1816 33.1046 17.0771 34 18.1816 34V30ZM47.2322 33.4142C48.0133 32.6332 48.0133 31.3668 47.2322 30.5858L34.5043 17.8579C33.7232 17.0768 32.4569 17.0768 31.6759 17.8579C30.8948 18.6389 30.8948 19.9052 31.6759 20.6863L42.9896 32L31.6759 43.3137C30.8948 44.0948 30.8948 45.3611 31.6759 46.1421C32.4569 46.9232 33.7232 46.9232 34.5043 46.1421L47.2322 33.4142ZM18.1816 34H45.818V30H18.1816V34Z" fill="white"/>
</g>
</svg>
