<svg width="35" height="29" viewBox="0 0 35 29" fill="none" xmlns="http://www.w3.org/2000/svg">
<path d="M6.77154 20.5941H22.1808C22.7576 20.5941 23.2665 20.208 23.4351 19.6424L28.4225 2.92422H32.8066C33.5309 2.92422 34.1182 2.32213 34.1182 1.57942C34.1182 0.836705 33.5309 0.234619 32.8066 0.234619H27.4519C26.8752 0.234619 26.3663 0.620769 26.1977 1.18597L21.2103 17.9045H7.64319L3.67657 8.22542H17.2549C17.9793 8.22542 18.5665 7.62334 18.5665 6.88062C18.5665 6.13791 17.9793 5.53582 17.2549 5.53582H1.70319C1.264 5.53582 0.853653 5.76136 0.610825 6.13637C0.367992 6.51138 0.323772 6.98629 0.493908 7.40164L5.56263 19.7703C5.76724 20.2695 6.24354 20.5941 6.77154 20.5941Z" fill="#1E1C1C"/>
<path d="M23.2956 28.8538C22.0207 28.8538 20.9872 27.7941 20.9872 26.487C20.9872 25.1798 22.0207 24.1201 23.2956 24.1201C24.5705 24.1201 25.604 25.1798 25.604 26.487C25.604 27.7941 24.5705 28.8538 23.2956 28.8538Z" fill="#1E1C1C"/>
<path d="M6.16626 28.8538C4.8914 28.8538 3.85792 27.7941 3.85792 26.487C3.85792 25.1798 4.8914 24.1201 6.16626 24.1201C7.44113 24.1201 8.47461 25.1798 8.47461 26.487C8.47461 27.7941 7.44113 28.8538 6.16626 28.8538Z" fill="#1E1C1C"/>
</svg>
