<svg width="64" height="64" viewBox="0 0 64 64" fill="none" xmlns="http://www.w3.org/2000/svg">
<g opacity="0.4">
<circle cx="32" cy="32" r="32" transform="rotate(-180 32 32)" fill="#1E1C1C"/>
<path d="M45.8184 34C46.9229 34 47.8184 33.1046 47.8184 32C47.8184 30.8954 46.9229 30 45.8184 30V34ZM16.7678 30.5858C15.9867 31.3668 15.9867 32.6332 16.7678 33.4142L29.4957 46.1421C30.2768 46.9232 31.5431 46.9232 32.3241 46.1421C33.1052 45.3611 33.1052 44.0948 32.3241 43.3137L21.0104 32L32.3241 20.6863C33.1052 19.9052 33.1052 18.6389 32.3241 17.8579C31.5431 17.0768 30.2768 17.0768 29.4957 17.8579L16.7678 30.5858ZM45.8184 30L18.182 30V34H45.8184V30Z" fill="white"/>
</g>
</svg>
