<svg width="9" height="9" viewBox="0 0 9 9" fill="none" xmlns="http://www.w3.org/2000/svg">
<path d="M8.70002 8.17518L6.84267 6.33479C7.32431 5.73363 7.58774 4.99009 7.58774 4.21755C7.58774 2.27697 5.94061 0.708151 3.9582 0.813618C2.22326 0.905901 0.802305 2.31388 0.709172 4.03298C0.602734 5.9973 2.186 7.62676 4.14447 7.62676C4.93211 7.62676 5.69314 7.36045 6.3025 6.87267L8.15719 8.71042C8.3062 8.85808 8.54835 8.85808 8.69736 8.71042C8.77187 8.6366 8.80912 8.53904 8.80912 8.44148C8.81178 8.34657 8.77453 8.24901 8.70002 8.17518ZM1.409 4.21228C1.409 2.71993 2.63038 1.51233 4.13382 1.51233C5.63726 1.51233 6.85864 2.72256 6.85864 4.21228C6.85864 5.70199 5.63726 6.91222 4.13382 6.91222C2.63038 6.91222 1.409 5.70463 1.409 4.21228Z" fill="#C4C4C4"/>
</svg>
