<svg width="26" height="21" viewBox="0 0 26 21" fill="none" xmlns="http://www.w3.org/2000/svg">
<path d="M5.38404 14.9393H16.7506C17.1761 14.9393 17.5514 14.6559 17.6758 14.2409L21.3548 1.97356H24.5887C25.123 1.97356 25.5562 1.53176 25.5562 0.986779C25.5562 0.441795 25.123 0 24.5887 0H20.6388C20.2134 0 19.838 0.283347 19.7136 0.698076L16.0347 12.9657H6.027L3.10104 5.86344H13.117C13.6514 5.86344 14.0845 5.42165 14.0845 4.87666C14.0845 4.33168 13.6514 3.88988 13.117 3.88988H1.64539C1.32142 3.88988 1.01873 4.05538 0.839607 4.33055C0.660484 4.60572 0.627867 4.95419 0.753365 5.25897L4.49229 14.3348C4.64322 14.701 4.99455 14.9393 5.38404 14.9393Z" fill="#C4C4C4"/>
<path d="M17.5726 20.9999C16.6322 20.9999 15.8698 20.2224 15.8698 19.2632C15.8698 18.304 16.6322 17.5265 17.5726 17.5265C18.513 17.5265 19.2754 18.304 19.2754 19.2632C19.2754 20.2224 18.513 20.9999 17.5726 20.9999Z" fill="#C4C4C4"/>
<path d="M4.9379 20.9999C3.99751 20.9999 3.23517 20.2224 3.23517 19.2632C3.23517 18.304 3.99751 17.5265 4.9379 17.5265C5.87829 17.5265 6.64062 18.304 6.64062 19.2632C6.64062 20.2224 5.87829 20.9999 4.9379 20.9999Z" fill="#C4C4C4"/>
</svg>
