<svg width="23" height="23" viewBox="0 0 23 23" fill="none" xmlns="http://www.w3.org/2000/svg">
<mask id="path-1-outside-1_568_951" maskUnits="userSpaceOnUse" x="0" y="0" width="23" height="23" fill="black">
<rect fill="white" width="23" height="23"/>
<path fill-rule="evenodd" clip-rule="evenodd" d="M16.285 15.1884L21.2108 12.1042L17.5663 6.34446L15.3009 7.76398L16.7245 5.51046L10.9309 1.88847L7.84074 6.7836V1H1V18.5993V18.6367V18.6708V22H4.41866C4.38786 22 4.35706 22 4.32626 21.9966H4.41866H4.44946H22.1074V15.1884H16.285ZM15.626 5.75555L11.1807 2.97779L8.005 8.00567L10.2259 9.39455L11.4545 10.1639L11.8275 10.3988L12.3305 10.7119L12.4469 10.7834L12.7651 10.2796L13.2545 9.50689L13.7438 8.73415L15.626 5.75555ZM9.09665 17.5849L8.8879 17.9151L9.32592 18.6095L10.4826 17.8844L12.0431 16.9074L13.518 15.9849L14.1511 15.59L14.3803 15.4471L14.2195 15.1952L12.4126 12.3357L10.6058 15.1952L10.356 15.59L10.1062 15.9849L9.52098 16.9142L9.09665 17.5849ZM10.705 10.6371L7.83732 8.84309V15.8658L8.16242 16.07L8.55938 16.3185L8.84341 16.4955L9.16509 15.9883L9.66471 15.1952L11.9404 11.5902L12.0225 11.4609L11.7522 11.2941L11.451 11.1068L11.078 10.8719L10.705 10.6371ZM8.61755 19.0486L8.65177 19.0282L8.56622 18.8852L8.41907 18.6572L8.16584 19.0554L7.87838 19.5082V19.5116L8.16584 19.3312L8.5628 19.0827L8.61755 19.0486ZM8.16242 17.0028L7.83732 16.7985H7.83047V18.0853L7.93998 17.9151L8.15899 17.5678L8.17611 17.544L8.41223 17.173L8.41907 17.1627L8.39854 17.1491L8.23428 17.047L8.16242 17.0028ZM1.79392 21.2068H7.0434V15.2633H6.27001H1.79392V18.5857V18.5993V21.2068ZM1.79392 14.4701H7.0434V8.52991H1.79392V14.4701ZM1.79392 7.73675H7.0434V1.79316H1.79392V7.73675ZM7.83732 21.2068H14.5378V16.2811L9.75026 19.2767L9.07611 19.6988L8.5628 20.0188L7.98447 20.383L7.83732 20.475V21.2068ZM12.8849 11.5902L14.4488 14.0616L15.0579 15.025L20.1157 11.8591L17.3199 7.44059L14.3256 9.31285L13.1244 11.2124L12.8849 11.5902ZM15.3317 21.2068H21.3066V15.9849H15.3317V21.2068ZM5.16145 18.5959C5.16145 19.0039 4.82898 19.3346 4.41886 19.3346C4.00874 19.3346 3.67627 19.0039 3.67627 18.5959C3.67627 18.1879 4.00874 17.8572 4.41886 17.8572C4.82898 17.8572 5.16145 18.1879 5.16145 18.5959Z"/>
</mask>
<path fill-rule="evenodd" clip-rule="evenodd" d="M16.285 15.1884L21.2108 12.1042L17.5663 6.34446L15.3009 7.76398L16.7245 5.51046L10.9309 1.88847L7.84074 6.7836V1H1V18.5993V18.6367V18.6708V22H4.41866C4.38786 22 4.35706 22 4.32626 21.9966H4.41866H4.44946H22.1074V15.1884H16.285ZM15.626 5.75555L11.1807 2.97779L8.005 8.00567L10.2259 9.39455L11.4545 10.1639L11.8275 10.3988L12.3305 10.7119L12.4469 10.7834L12.7651 10.2796L13.2545 9.50689L13.7438 8.73415L15.626 5.75555ZM9.09665 17.5849L8.8879 17.9151L9.32592 18.6095L10.4826 17.8844L12.0431 16.9074L13.518 15.9849L14.1511 15.59L14.3803 15.4471L14.2195 15.1952L12.4126 12.3357L10.6058 15.1952L10.356 15.59L10.1062 15.9849L9.52098 16.9142L9.09665 17.5849ZM10.705 10.6371L7.83732 8.84309V15.8658L8.16242 16.07L8.55938 16.3185L8.84341 16.4955L9.16509 15.9883L9.66471 15.1952L11.9404 11.5902L12.0225 11.4609L11.7522 11.2941L11.451 11.1068L11.078 10.8719L10.705 10.6371ZM8.61755 19.0486L8.65177 19.0282L8.56622 18.8852L8.41907 18.6572L8.16584 19.0554L7.87838 19.5082V19.5116L8.16584 19.3312L8.5628 19.0827L8.61755 19.0486ZM8.16242 17.0028L7.83732 16.7985H7.83047V18.0853L7.93998 17.9151L8.15899 17.5678L8.17611 17.544L8.41223 17.173L8.41907 17.1627L8.39854 17.1491L8.23428 17.047L8.16242 17.0028ZM1.79392 21.2068H7.0434V15.2633H6.27001H1.79392V18.5857V18.5993V21.2068ZM1.79392 14.4701H7.0434V8.52991H1.79392V14.4701ZM1.79392 7.73675H7.0434V1.79316H1.79392V7.73675ZM7.83732 21.2068H14.5378V16.2811L9.75026 19.2767L9.07611 19.6988L8.5628 20.0188L7.98447 20.383L7.83732 20.475V21.2068ZM12.8849 11.5902L14.4488 14.0616L15.0579 15.025L20.1157 11.8591L17.3199 7.44059L14.3256 9.31285L13.1244 11.2124L12.8849 11.5902ZM15.3317 21.2068H21.3066V15.9849H15.3317V21.2068ZM5.16145 18.5959C5.16145 19.0039 4.82898 19.3346 4.41886 19.3346C4.00874 19.3346 3.67627 19.0039 3.67627 18.5959C3.67627 18.1879 4.00874 17.8572 4.41886 17.8572C4.82898 17.8572 5.16145 18.1879 5.16145 18.5959Z" fill="#C4C4C4"/>
<path d="M16.285 15.1884L16.232 15.1036L15.9369 15.2884H16.285V15.1884ZM21.2108 12.1042L21.2639 12.189L21.349 12.1357L21.2953 12.0508L21.2108 12.1042ZM17.5663 6.34446L17.6508 6.29099L17.5976 6.20686L17.5132 6.25973L17.5663 6.34446ZM15.3009 7.76398L15.2163 7.71057L15.354 7.84872L15.3009 7.76398ZM16.7245 5.51046L16.809 5.56386L16.8627 5.47892L16.7775 5.42566L16.7245 5.51046ZM10.9309 1.88847L10.9839 1.80368L10.8995 1.7509L10.8463 1.83509L10.9309 1.88847ZM7.84074 6.7836H7.74074V7.12934L7.9253 6.83698L7.84074 6.7836ZM7.84074 1H7.94074V0.9H7.84074V1ZM1 1V0.9H0.9V1H1ZM1 22H0.9V22.1H1V22ZM4.32626 21.9966V21.8966L4.31528 22.096L4.32626 21.9966ZM22.1074 21.9966V22.0966H22.2074V21.9966H22.1074ZM22.1074 15.1884H22.2074V15.0884H22.1074V15.1884ZM11.1807 2.97779L11.2337 2.89299L11.1493 2.84025L11.0961 2.92439L11.1807 2.97779ZM15.626 5.75555L15.7105 5.80897L15.7642 5.72401L15.679 5.67075L15.626 5.75555ZM8.005 8.00567L7.92045 7.95227L7.86681 8.0372L7.95198 8.09046L8.005 8.00567ZM10.2259 9.39455L10.279 9.3098L10.279 9.30977L10.2259 9.39455ZM11.4545 10.1639L11.5077 10.0793L11.5075 10.0791L11.4545 10.1639ZM11.8275 10.3988L11.7742 10.4834L11.7746 10.4837L11.8275 10.3988ZM12.3305 10.7119L12.2777 10.7968L12.2782 10.7971L12.3305 10.7119ZM12.4469 10.7834L12.3945 10.8686L12.4787 10.9203L12.5314 10.8368L12.4469 10.7834ZM12.7651 10.2796L12.6806 10.2261L12.6806 10.2262L12.7651 10.2796ZM13.2545 9.50689L13.339 9.56039L13.2545 9.50689ZM13.7438 8.73415L13.8283 8.78766L13.8284 8.78757L13.7438 8.73415ZM8.8879 17.9151L8.80337 17.8616L8.76963 17.915L8.80332 17.9684L8.8879 17.9151ZM9.09665 17.5849L9.01214 17.5314L9.01212 17.5314L9.09665 17.5849ZM9.32592 18.6095L9.24134 18.6628L9.29455 18.7472L9.37904 18.6942L9.32592 18.6095ZM10.4826 17.8844L10.4295 17.7997L10.4295 17.7997L10.4826 17.8844ZM12.0431 16.9074L11.99 16.8227L11.99 16.8227L12.0431 16.9074ZM13.518 15.9849L13.465 15.9001L13.4649 15.9001L13.518 15.9849ZM14.1511 15.59L14.0981 15.5052L14.0981 15.5052L14.1511 15.59ZM14.3803 15.4471L14.4333 15.5319L14.519 15.4784L14.4646 15.3933L14.3803 15.4471ZM14.2195 15.1952L14.135 15.2486L14.1352 15.249L14.2195 15.1952ZM12.4126 12.3357L12.4972 12.2823L12.4126 12.1485L12.3281 12.2823L12.4126 12.3357ZM10.6058 15.1952L10.6903 15.2486L10.6903 15.2486L10.6058 15.1952ZM10.356 15.59L10.2715 15.5366L10.356 15.59ZM10.1062 15.9849L10.0216 15.9315L10.0215 15.9316L10.1062 15.9849ZM9.52098 16.9142L9.60549 16.9677L9.6056 16.9675L9.52098 16.9142ZM7.83732 8.84309L7.89035 8.75831L7.73732 8.66257V8.84309H7.83732ZM10.705 10.6371L10.7583 10.5524L10.7581 10.5523L10.705 10.6371ZM7.83732 15.8658H7.73732V15.9211L7.78412 15.9505L7.83732 15.8658ZM8.16242 16.07L8.10922 16.1547L8.10935 16.1548L8.16242 16.07ZM8.55938 16.3185L8.50632 16.4033L8.50649 16.4034L8.55938 16.3185ZM8.84341 16.4955L8.79052 16.5804L8.87472 16.6329L8.92786 16.5491L8.84341 16.4955ZM9.16509 15.9883L9.24953 16.0419L9.2497 16.0416L9.16509 15.9883ZM9.66471 15.1952L9.58015 15.1418L9.5801 15.1419L9.66471 15.1952ZM11.9404 11.5902L11.856 11.5366L11.8558 11.5368L11.9404 11.5902ZM12.0225 11.4609L12.1069 11.5145L12.1612 11.4289L12.075 11.3757L12.0225 11.4609ZM11.7522 11.2941L11.6994 11.379L11.6997 11.3792L11.7522 11.2941ZM11.451 11.1068L11.3977 11.1914L11.3982 11.1918L11.451 11.1068ZM11.078 10.8719L11.0247 10.9566H11.0247L11.078 10.8719ZM8.65177 19.0282L8.70303 19.1141L8.78899 19.0628L8.73759 18.9769L8.65177 19.0282ZM8.61755 19.0486L8.56629 18.9628L8.56475 18.9637L8.61755 19.0486ZM8.56622 18.8852L8.65208 18.8339L8.65025 18.831L8.56622 18.8852ZM8.41907 18.6572L8.5031 18.6029L8.41846 18.4718L8.33469 18.6035L8.41907 18.6572ZM8.16584 19.0554L8.08145 19.0018L8.08142 19.0018L8.16584 19.0554ZM7.87838 19.5082L7.79396 19.4546L7.77838 19.4791V19.5082H7.87838ZM7.87838 19.5116H7.77838V19.6924L7.93154 19.5963L7.87838 19.5116ZM8.16584 19.3312L8.11278 19.2464L8.11268 19.2465L8.16584 19.3312ZM8.5628 19.0827L8.51 18.9977L8.50974 18.9979L8.5628 19.0827ZM7.83732 16.7985L7.89052 16.7138L7.86612 16.6985H7.83732V16.7985ZM8.16242 17.0028L8.10922 17.0874L8.10998 17.0879L8.16242 17.0028ZM7.83047 16.7985V16.6985H7.73047V16.7985H7.83047ZM7.83047 18.0853H7.73047V18.4255L7.91457 18.1394L7.83047 18.0853ZM7.93998 17.9151L8.02408 17.9692L8.02456 17.9684L7.93998 17.9151ZM8.15899 17.5678L8.07762 17.5094L8.07441 17.5145L8.15899 17.5678ZM8.17611 17.544L8.25746 17.6024L8.26047 17.5977L8.17611 17.544ZM8.41223 17.173L8.32913 17.1173L8.32786 17.1193L8.41223 17.173ZM8.41907 17.1627L8.50214 17.2184L8.55808 17.1349L8.47434 17.0794L8.41907 17.1627ZM8.39854 17.1491L8.45383 17.0658L8.45134 17.0642L8.39854 17.1491ZM8.23428 17.047L8.28708 16.9621L8.28672 16.9619L8.23428 17.047ZM7.0434 21.2068V21.3068H7.14339V21.2068H7.0434ZM1.79392 21.2068H1.69392V21.3068H1.79392V21.2068ZM7.0434 15.2633H7.14339V15.1633H7.0434V15.2633ZM1.79392 15.2633V15.1633H1.69392V15.2633H1.79392ZM7.0434 14.4701V14.5701H7.14339V14.4701H7.0434ZM1.79392 14.4701H1.69392V14.5701H1.79392V14.4701ZM7.0434 8.52991H7.14339V8.42991H7.0434V8.52991ZM1.79392 8.52991V8.42991H1.69392V8.52991H1.79392ZM7.0434 7.73675V7.83675H7.14339V7.73675H7.0434ZM1.79392 7.73675H1.69392V7.83675H1.79392V7.73675ZM7.0434 1.79316H7.14339V1.69316H7.0434V1.79316ZM1.79392 1.79316V1.69316H1.69392V1.79316H1.79392ZM14.5378 21.2068V21.3068H14.6378V21.2068H14.5378ZM7.83732 21.2068H7.73732V21.3068H7.83732V21.2068ZM14.5378 16.2811H14.6378V16.1005L14.4847 16.1963L14.5378 16.2811ZM9.75026 19.2767L9.69722 19.1919L9.69719 19.1919L9.75026 19.2767ZM9.07611 19.6988L9.12901 19.7837L9.12918 19.7836L9.07611 19.6988ZM8.5628 20.0188L8.5099 19.9339L8.50951 19.9342L8.5628 20.0188ZM7.98447 20.383L8.03744 20.4679L8.03776 20.4677L7.98447 20.383ZM7.83732 20.475L7.78434 20.3901L7.73732 20.4195V20.475H7.83732ZM14.4488 14.0616L14.5333 14.0082L14.5333 14.0081L14.4488 14.0616ZM12.8849 11.5902L12.8004 11.5367L12.7665 11.5902L12.8004 11.6437L12.8849 11.5902ZM15.0579 15.025L14.9734 15.0784L15.0266 15.1625L15.111 15.1097L15.0579 15.025ZM20.1157 11.8591L20.1688 11.9439L20.254 11.8906L20.2003 11.8057L20.1157 11.8591ZM17.3199 7.44059L17.4044 7.38712L17.3512 7.30307L17.2669 7.3558L17.3199 7.44059ZM14.3256 9.31285L14.2726 9.22807L14.2532 9.24015L14.2411 9.25941L14.3256 9.31285ZM13.1244 11.2124L13.2089 11.2659L13.209 11.2658L13.1244 11.2124ZM21.3066 21.2068V21.3068H21.4066V21.2068H21.3066ZM15.3317 21.2068H15.2317V21.3068H15.3317V21.2068ZM21.3066 15.9849H21.4066V15.8849H21.3066V15.9849ZM15.3317 15.9849V15.8849H15.2317V15.9849H15.3317ZM16.3381 15.2731L21.2639 12.189L21.1577 12.0195L16.232 15.1036L16.3381 15.2731ZM21.2953 12.0508L17.6508 6.29099L17.4818 6.39793L21.1263 12.1577L21.2953 12.0508ZM17.5132 6.25973L15.2478 7.67924L15.354 7.84872L17.6194 6.4292L17.5132 6.25973ZM15.3854 7.81739L16.809 5.56386L16.6399 5.45705L15.2163 7.71057L15.3854 7.81739ZM16.7775 5.42566L10.9839 1.80368L10.8779 1.97327L16.6715 5.59525L16.7775 5.42566ZM10.8463 1.83509L7.75618 6.73022L7.9253 6.83698L11.0154 1.94186L10.8463 1.83509ZM7.94074 6.7836V1H7.74074V6.7836H7.94074ZM7.84074 0.9H1V1.1H7.84074V0.9ZM0.9 1V18.5993H1.1V1H0.9ZM0.9 18.5993V18.6367H1.1V18.5993H0.9ZM0.9 18.6367V18.6708H1.1V18.6367H0.9ZM0.9 18.6708V22H1.1V18.6708H0.9ZM1 22.1H4.41866V21.9H1V22.1ZM4.41866 21.9C4.38697 21.9 4.36167 21.8999 4.33724 21.8972L4.31528 22.096C4.35246 22.1001 4.38876 22.1 4.41866 22.1V21.9ZM4.32626 22.0966H4.41866V21.8966H4.32626V22.0966ZM4.41866 22.0966H4.44946V21.8966H4.41866V22.0966ZM4.44946 22.0966H22.1074V21.8966H4.44946V22.0966ZM22.2074 21.9966V15.1884H22.0074V21.9966H22.2074ZM22.1074 15.0884H16.285V15.2884H22.1074V15.0884ZM11.1277 3.0626L15.573 5.84036L15.679 5.67075L11.2337 2.89299L11.1277 3.0626ZM8.08955 8.05907L11.2652 3.03119L11.0961 2.92439L7.92045 7.95227L8.08955 8.05907ZM10.279 9.30977L8.05802 7.92089L7.95198 8.09046L10.1729 9.47934L10.279 9.30977ZM11.5075 10.0791L10.279 9.3098L10.1729 9.47931L11.4014 10.2486L11.5075 10.0791ZM11.8808 10.3141L11.5077 10.0793L11.4012 10.2485L11.7742 10.4834L11.8808 10.3141ZM12.3834 10.6271L11.8803 10.3139L11.7746 10.4837L12.2777 10.7968L12.3834 10.6271ZM12.4992 10.6982L12.3829 10.6267L12.2782 10.7971L12.3945 10.8686L12.4992 10.6982ZM12.6806 10.2262L12.3623 10.73L12.5314 10.8368L12.8497 10.333L12.6806 10.2262ZM13.17 9.45339L12.6806 10.2261L12.8496 10.3331L13.339 9.56039L13.17 9.45339ZM13.6593 8.68065L13.17 9.45339L13.339 9.56039L13.8283 8.78766L13.6593 8.68065ZM15.5414 5.70213L13.6593 8.68074L13.8284 8.78757L15.7105 5.80897L15.5414 5.70213ZM8.97242 17.9685L9.18117 17.6383L9.01212 17.5314L8.80337 17.8616L8.97242 17.9685ZM9.4105 18.5561L8.97248 17.8617L8.80332 17.9684L9.24134 18.6628L9.4105 18.5561ZM10.4295 17.7997L9.27281 18.5248L9.37904 18.6942L10.5357 17.9692L10.4295 17.7997ZM11.99 16.8227L10.4295 17.7997L10.5357 17.9692L12.0961 16.9922L11.99 16.8227ZM13.4649 15.9001L11.99 16.8227L12.0961 16.9922L13.571 16.0697L13.4649 15.9001ZM14.0981 15.5052L13.465 15.9001L13.5709 16.0698L14.204 15.6749L14.0981 15.5052ZM14.3274 15.3622L14.0981 15.5052L14.204 15.6749L14.4333 15.5319L14.3274 15.3622ZM14.1352 15.249L14.2961 15.5009L14.4646 15.3933L14.3038 15.1414L14.1352 15.249ZM12.3281 12.3891L14.135 15.2486L14.304 15.1418L12.4972 12.2823L12.3281 12.3891ZM10.6903 15.2486L12.4972 12.3891L12.3281 12.2823L10.5212 15.1418L10.6903 15.2486ZM10.4405 15.6435L10.6903 15.2486L10.5213 15.1417L10.2715 15.5366L10.4405 15.6435ZM10.1907 16.0384L10.4405 15.6435L10.2715 15.5366L10.0216 15.9315L10.1907 16.0384ZM9.6056 16.9675L10.1908 16.0382L10.0215 15.9316L9.43636 16.861L9.6056 16.9675ZM9.18115 17.6383L9.60549 16.9677L9.43648 16.8608L9.01214 17.5314L9.18115 17.6383ZM7.78428 8.92786L10.652 10.7218L10.7581 10.5523L7.89035 8.75831L7.78428 8.92786ZM7.93732 15.8658V8.84309H7.73732V15.8658H7.93732ZM8.21561 15.9854L7.89052 15.7811L7.78412 15.9505L8.10922 16.1547L8.21561 15.9854ZM8.61244 16.2338L8.21548 15.9853L8.10935 16.1548L8.50632 16.4033L8.61244 16.2338ZM8.8963 16.4107L8.61227 16.2337L8.50649 16.4034L8.79052 16.5804L8.8963 16.4107ZM9.08064 15.9348L8.75896 16.442L8.92786 16.5491L9.24953 16.0419L9.08064 15.9348ZM9.5801 15.1419L9.08047 15.935L9.2497 16.0416L9.74932 15.2485L9.5801 15.1419ZM11.8558 11.5368L9.58015 15.1418L9.74927 15.2485L12.025 11.6436L11.8558 11.5368ZM11.9381 11.4073L11.856 11.5366L12.0248 11.6438L12.1069 11.5145L11.9381 11.4073ZM11.6997 11.3792L11.97 11.546L12.075 11.3757L11.8047 11.2089L11.6997 11.3792ZM11.3982 11.1918L11.6994 11.379L11.805 11.2091L11.5038 11.0219L11.3982 11.1918ZM11.0247 10.9566L11.3978 11.1914L11.5043 11.0222L11.1313 10.7873L11.0247 10.9566ZM10.6517 10.7217L11.0247 10.9566L11.1313 10.7873L10.7583 10.5524L10.6517 10.7217ZM8.60052 18.9423L8.5663 18.9628L8.66881 19.1345L8.70303 19.1141L8.60052 18.9423ZM8.48041 18.9366L8.56596 19.0796L8.73759 18.9769L8.65203 18.8339L8.48041 18.9366ZM8.33504 18.7114L8.48219 18.9394L8.65025 18.831L8.5031 18.6029L8.33504 18.7114ZM8.25023 19.1091L8.50346 18.7108L8.33469 18.6035L8.08145 19.0018L8.25023 19.1091ZM7.96281 19.5618L8.25026 19.109L8.08142 19.0018L7.79396 19.4546L7.96281 19.5618ZM7.97838 19.5116V19.5082H7.77838V19.5116H7.97838ZM8.11268 19.2465L7.82522 19.4269L7.93154 19.5963L8.219 19.4159L8.11268 19.2465ZM8.50974 18.9979L8.11278 19.2464L8.2189 19.4159L8.61586 19.1674L8.50974 18.9979ZM8.56475 18.9637L8.51 18.9977L8.6156 19.1676L8.67035 19.1336L8.56475 18.9637ZM7.78412 16.8832L8.10922 17.0874L8.21561 16.9181L7.89052 16.7138L7.78412 16.8832ZM7.83047 16.8985H7.83732V16.6985H7.83047V16.8985ZM7.93047 18.0853V16.7985H7.73047V18.0853H7.93047ZM7.85588 17.861L7.74638 18.0312L7.91457 18.1394L8.02408 17.9692L7.85588 17.861ZM8.07441 17.5145L7.8554 17.8617L8.02456 17.9684L8.24357 17.6212L8.07441 17.5145ZM8.09488 17.4857L8.07777 17.5095L8.24022 17.6262L8.25733 17.6023L8.09488 17.4857ZM8.32786 17.1193L8.09174 17.4903L8.26047 17.5977L8.49659 17.2266L8.32786 17.1193ZM8.336 17.1071L8.32916 17.1173L8.4953 17.2286L8.50214 17.2184L8.336 17.1071ZM8.34327 17.2325L8.3638 17.2461L8.47434 17.0794L8.45381 17.0658L8.34327 17.2325ZM8.18148 17.1319L8.34574 17.2341L8.45134 17.0642L8.28708 16.9621L8.18148 17.1319ZM8.10998 17.0879L8.18184 17.1322L8.28672 16.9619L8.21485 16.9176L8.10998 17.0879ZM7.0434 21.1068H1.79392V21.3068H7.0434V21.1068ZM6.9434 15.2633V21.2068H7.14339V15.2633H6.9434ZM6.27001 15.3633H7.0434V15.1633H6.27001V15.3633ZM1.79392 15.3633H6.27001V15.1633H1.79392V15.3633ZM1.89392 18.5857V15.2633H1.69392V18.5857H1.89392ZM1.89392 18.5993V18.5857H1.69392V18.5993H1.89392ZM1.89392 21.2068V18.5993H1.69392V21.2068H1.89392ZM7.0434 14.3701H1.79392V14.5701H7.0434V14.3701ZM6.9434 8.52991V14.4701H7.14339V8.52991H6.9434ZM1.79392 8.62991H7.0434V8.42991H1.79392V8.62991ZM1.89392 14.4701V8.52991H1.69392V14.4701H1.89392ZM7.0434 7.63675H1.79392V7.83675H7.0434V7.63675ZM6.9434 1.79316V7.73675H7.14339V1.79316H6.9434ZM1.79392 1.89316H7.0434V1.69316H1.79392V1.89316ZM1.89392 7.73675V1.79316H1.69392V7.73675H1.89392ZM14.5378 21.1068H7.83732V21.3068H14.5378V21.1068ZM14.4378 16.2811V21.2068H14.6378V16.2811H14.4378ZM9.80331 19.3615L14.5908 16.3659L14.4847 16.1963L9.69722 19.1919L9.80331 19.3615ZM9.12918 19.7836L9.80333 19.3615L9.69719 19.1919L9.02304 19.6141L9.12918 19.7836ZM8.6157 20.1037L9.12901 19.7837L9.02321 19.614L8.5099 19.9339L8.6157 20.1037ZM8.03776 20.4677L8.61609 20.1034L8.50951 19.9342L7.93118 20.2984L8.03776 20.4677ZM7.89029 20.5598L8.03744 20.4679L7.93149 20.2982L7.78434 20.3901L7.89029 20.5598ZM7.93732 21.2068V20.475H7.73732V21.2068H7.93732ZM14.5333 14.0081L12.9694 11.5367L12.8004 11.6437L14.3643 14.1151L14.5333 14.0081ZM15.1424 14.9715L14.5333 14.0082L14.3643 14.115L14.9734 15.0784L15.1424 14.9715ZM20.0627 11.7744L15.0049 14.9402L15.111 15.1097L20.1688 11.9439L20.0627 11.7744ZM17.2354 7.49406L20.0312 11.9126L20.2003 11.8057L17.4044 7.38712L17.2354 7.49406ZM14.3786 9.39764L17.3729 7.52538L17.2669 7.3558L14.2726 9.22807L14.3786 9.39764ZM13.209 11.2658L14.4101 9.3663L14.2411 9.25941L13.0399 11.1589L13.209 11.2658ZM12.9693 11.6438L13.2089 11.2659L13.04 11.1588L12.8004 11.5367L12.9693 11.6438ZM21.3066 21.1068H15.3317V21.3068H21.3066V21.1068ZM21.2066 15.9849V21.2068H21.4066V15.9849H21.2066ZM15.3317 16.0849H21.3066V15.8849H15.3317V16.0849ZM15.4317 21.2068V15.9849H15.2317V21.2068H15.4317ZM4.41886 19.4346C4.88372 19.4346 5.26145 19.0596 5.26145 18.5959H5.06145C5.06145 18.9481 4.77425 19.2346 4.41886 19.2346V19.4346ZM3.57627 18.5959C3.57627 19.0596 3.95401 19.4346 4.41886 19.4346V19.2346C4.06347 19.2346 3.77627 18.9481 3.77627 18.5959H3.57627ZM4.41886 17.7572C3.95401 17.7572 3.57627 18.1322 3.57627 18.5959H3.77627C3.77627 18.2436 4.06347 17.9572 4.41886 17.9572V17.7572ZM5.26145 18.5959C5.26145 18.1322 4.88372 17.7572 4.41886 17.7572V17.9572C4.77425 17.9572 5.06145 18.2436 5.06145 18.5959H5.26145Z" fill="#C4C4C4" mask="url(#path-1-outside-1_568_951)"/>
</svg>
