<svg width="33" height="21" viewBox="0 0 33 21" fill="none" xmlns="http://www.w3.org/2000/svg">
<path d="M14.4541 1.3741C14.8323 0.564362 15.6545 0 16.6124 0C17.5703 0 18.3967 0.560272 18.7708 1.3741H26.2572C26.2591 1.37428 26.2619 1.37449 26.2658 1.37477C26.3477 1.38068 26.867 1.41815 27.0712 1.9221L14.4541 1.3741ZM14.4541 1.3741H6.96766H14.4541ZM32.4856 14.3749C32.4985 14.4031 32.5033 14.4345 32.5082 14.4662C32.5111 14.485 32.5139 14.5038 32.5185 14.5221C32.5226 14.5385 32.5273 14.5548 32.5319 14.5712C32.5458 14.6203 32.5597 14.6693 32.5597 14.7184L32.4856 14.3749ZM32.4856 14.3749V14.3708V14.3749ZM32.5096 14.7184V14.7185L32.5597 14.7485C32.5556 16.4705 31.85 18.0294 30.7137 19.1597C29.5708 20.2966 27.9963 21 26.2572 21C22.7792 21 19.9507 18.1823 19.9507 14.7225V14.7184H20.0007C20.0007 14.6917 20.0058 14.6636 20.0136 14.6324C20.0175 14.6169 20.0219 14.6013 20.0266 14.5848L20.0267 14.5844C20.0312 14.5683 20.036 14.5514 20.0403 14.5343C20.0456 14.5135 20.049 14.4911 20.0519 14.4719C20.0528 14.4659 20.0537 14.4603 20.0545 14.4551C20.0585 14.4308 20.0628 14.4118 20.0702 14.3957L20.0747 14.3858V14.3812L24.9382 3.20574L24.9686 3.13578H24.8923H18.8366H18.802L18.7898 3.16817C18.4598 4.04483 17.6106 4.66938 16.6124 4.66938C15.6143 4.66938 14.7651 4.04483 14.4351 3.16817L14.4229 3.13578H14.3883H8.33256H8.25627L8.28672 3.20574L13.1502 14.3812V14.3858L13.1547 14.3957C13.1621 14.4118 13.1664 14.4308 13.1704 14.4551C13.1712 14.4603 13.1721 14.4659 13.173 14.4719C13.1759 14.4911 13.1793 14.5135 13.1846 14.5343C13.1889 14.5515 13.1937 14.5685 13.1983 14.5848C13.203 14.6013 13.2074 14.6169 13.2113 14.6324C13.2191 14.6636 13.2242 14.6917 13.2242 14.7184V14.7184V14.7185V14.7185V14.7185V14.7185V14.7185V14.7186V14.7186V14.7186V14.7186V14.7187V14.7187V14.7187V14.7187V14.7188V14.7188V14.7188V14.7188V14.7188V14.7189V14.7189V14.7189V14.7189V14.719V14.719V14.719V14.719V14.719V14.7191V14.7191V14.7191V14.7191V14.7191V14.7192V14.7192V14.7192V14.7192V14.7192V14.7193V14.7193V14.7193V14.7193V14.7193V14.7194V14.7194V14.7194V14.7194V14.7194V14.7195V14.7195V14.7195V14.7195V14.7195V14.7196V14.7196V14.7196V14.7196V14.7196V14.7197V14.7197V14.7197V14.7197V14.7197V14.7198V14.7198V14.7198V14.7198V14.7198V14.7198V14.7199V14.7199V14.7199V14.7199V14.7199V14.72V14.72V14.72V14.72V14.72V14.72V14.7201V14.7201V14.7201V14.7201V14.7201V14.7201V14.7202V14.7202V14.7202V14.7202V14.7202V14.7202V14.7203V14.7203V14.7203V14.7203V14.7203V14.7203V14.7203V14.7204V14.7204V14.7204V14.7204V14.7204V14.7204V14.7205V14.7205V14.7205V14.7205V14.7205V14.7205V14.7205V14.7206V14.7206V14.7206V14.7206V14.7206V14.7206V14.7206V14.7207V14.7207V14.7207V14.7207V14.7207V14.7207V14.7207V14.7208V14.7208V14.7208V14.7208V14.7208V14.7208V14.7208V14.7208V14.7209V14.7209V14.7209V14.7209V14.7209V14.7209V14.7209V14.721V14.721V14.721V14.721V14.721V14.721V14.721V14.721V14.721V14.7211V14.7211V14.7211V14.7211V14.7211V14.7211V14.7211V14.7211V14.7212V14.7212V14.7212V14.7212V14.7212V14.7212V14.7212V14.7212V14.7212V14.7213V14.7213V14.7213V14.7213V14.7213V14.7213V14.7213V14.7213V14.7213V14.7213V14.7214V14.7214V14.7214V14.7214V14.7214V14.7214V14.7214V14.7214V14.7214V14.7214V14.7215V14.7215V14.7215V14.7215V14.7215V14.7215V14.7215V14.7215V14.7215V14.7215V14.7215V14.7216V14.7216V14.7216V14.7216V14.7216V14.7216V14.7216V14.7216V14.7216V14.7216V14.7216V14.7217V14.7217V14.7217V14.7217V14.7217V14.7217V14.7217V14.7217V14.7217V14.7217V14.7217V14.7217V14.7218V14.7218V14.7218V14.7218V14.7218V14.7218V14.7218V14.7218V14.7218V14.7218V14.7219V14.7219V14.7219V14.7219V14.7219V14.7219V14.7219V14.7219V14.722V14.722V14.722V14.722V14.722V14.722V14.722V14.722V14.7221V14.7221V14.7221V14.7221V14.7221V14.7221V14.7221V14.7221V14.7221V14.7221V14.7222V14.7222V14.7222V14.7222V14.7222V14.7222V14.7222V14.7222V14.7222V14.7222V14.7222V14.7222V14.7222V14.7223V14.7223V14.7223V14.7223V14.7223V14.7223V14.7223V14.7223V14.7223V14.7223V14.7223V14.7224V14.7224V14.7224V14.7224V14.7224V14.7224V14.7224V14.7224V14.7224V14.7224V14.7224V14.7224V14.7225V14.7225V14.7225V14.7225V14.7225V14.7225C13.2242 16.4385 12.5228 17.9963 11.3889 19.1242C10.255 20.2522 8.69291 20.95 6.96766 20.95C3.51702 20.95 0.711133 18.1545 0.711133 14.7225V14.7225V14.7224V14.7224V14.7224V14.7224V14.7224V14.7223V14.7223V14.7223V14.7223V14.7222V14.7222V14.7222V14.7222V14.7221V14.7221V14.7221V14.7221V14.7221V14.722V14.722V14.722V14.722V14.7219V14.7219V14.7219V14.7219V14.7219V14.7218V14.7218V14.7218V14.7218V14.7218V14.7217V14.7217V14.7217V14.7217V14.7216V14.7216V14.7216V14.7216V14.7216V14.7215V14.7215V14.7215V14.7215V14.7215V14.7214V14.7214V14.7214V14.7214V14.7214V14.7213V14.7213V14.7213V14.7213V14.7213V14.7213V14.7212V14.7212V14.7212V14.7212V14.7212V14.7211V14.7211V14.7211V14.7211V14.7211V14.7211V14.721V14.721V14.721V14.721V14.721V14.7209V14.7209V14.7209V14.7209V14.7209V14.7209V14.7208V14.7208V14.7208V14.7208V14.7208V14.7208V14.7207V14.7207V14.7207V14.7207V14.7207V14.7207V14.7206V14.7206V14.7206V14.7206V14.7206V14.7206V14.7205V14.7205V14.7205V14.7205V14.7205V14.7205V14.7205V14.7204V14.7204V14.7204V14.7204V14.7204V14.7204V14.7204V14.7203V14.7203V14.7203V14.7203V14.7203V14.7203V14.7203V14.7202V14.7202V14.7202V14.7202V14.7202V14.7202V14.7202V14.7201V14.7201V14.7201V14.7201V14.7201V14.7201V14.7201V14.72V14.72V14.72V14.72V14.72V14.72V14.72V14.72V14.7199V14.7199V14.7199V14.7199V14.7199V14.7199V14.7199V14.7199V14.7198V14.7198V14.7198V14.7198V14.7198V14.7198V14.7198V14.7198V14.7198V14.7197V14.7197V14.7197V14.7197V14.7197V14.7197V14.7197V14.7197V14.7197V14.7196V14.7196V14.7196V14.7196V14.7196V14.7196V14.7196V14.7196V14.7196V14.7195V14.7195V14.7195V14.7195V14.7195V14.7195V14.7195V14.7195V14.7195V14.7195V14.7194V14.7194V14.7194V14.7194V14.7194V14.7194V14.7194V14.7194V14.7194V14.7194V14.7194V14.7193V14.7193V14.7193V14.7193V14.7193V14.7193V14.7193V14.7193V14.7193V14.7193V14.7193V14.7193V14.7192V14.7192V14.7192V14.7192V14.7192V14.7192V14.7192V14.7192V14.7192V14.7192V14.7192V14.7192V14.7191V14.7191V14.7191V14.7191V14.7191V14.7191V14.7191V14.7191V14.7191V14.7191V14.7191V14.719V14.719V14.719V14.719V14.719V14.719V14.719V14.7189V14.7189V14.7189V14.7189V14.7189V14.7189V14.7189V14.7189V14.7189V14.7188V14.7188V14.7188V14.7188V14.7188V14.7188V14.7188V14.7188V14.7188V14.7188V14.7187V14.7187V14.7187V14.7187V14.7187V14.7187V14.7187V14.7187V14.7187V14.7187V14.7187V14.7187V14.7186V14.7186V14.7186V14.7186V14.7186V14.7186V14.7186V14.7186V14.7186V14.7186V14.7186V14.7185V14.7185V14.7185V14.7185V14.7185V14.7185V14.7185V14.7185V14.7185V14.7185V14.7185V14.7185V14.7184V14.7184V14.7184V14.7184V14.7184V14.7184C0.711133 14.6917 0.716187 14.6636 0.724014 14.6324C0.727916 14.6169 0.732338 14.6013 0.736997 14.5848L0.737088 14.5845C0.741651 14.5683 0.746445 14.5514 0.750736 14.5343C0.75597 14.5135 0.759378 14.4911 0.76232 14.4719C0.763226 14.4659 0.764088 14.4603 0.764946 14.4551C0.76892 14.4308 0.773236 14.4118 0.780611 14.3957L0.785134 14.3858V14.3812L6.19949 1.94206L6.1995 1.94206L6.19994 1.94101C6.39243 1.46967 6.88277 1.43098 6.96423 1.42455C6.96642 1.42438 6.96831 1.42423 6.96989 1.4241H14.4541H14.4859L14.4994 1.39526C14.8697 0.602416 15.6747 0.05 16.6124 0.05C17.5504 0.05 18.3593 0.598534 18.7254 1.39498L18.7388 1.4241H18.7708H26.255C26.2568 1.42425 26.259 1.42441 26.2616 1.42461C26.346 1.43095 26.8331 1.46759 27.0249 1.94088L27.0249 1.94089L27.0254 1.94204L32.4356 14.3812V14.3858L32.4402 14.3957C32.4475 14.4118 32.4519 14.4308 32.4558 14.4551C32.4567 14.4603 32.4576 14.4659 32.4585 14.4718C32.4614 14.4911 32.4648 14.5135 32.47 14.5343C32.4744 14.5515 32.4792 14.5685 32.4838 14.5848C32.4859 14.5923 32.488 14.5997 32.49 14.6069C32.4924 14.6155 32.4946 14.624 32.4968 14.6324C32.5046 14.6636 32.5096 14.6917 32.5096 14.7184ZM2.5276 15.5558H2.46667L2.47856 15.6156C2.89427 17.7039 4.7481 19.2833 6.96766 19.2833C9.18723 19.2833 11.041 17.7039 11.4608 15.6157L11.4729 15.5558H11.4118H2.5276ZM11.0336 13.8891H11.1099L11.0794 13.8192L7.0135 4.4745L6.96766 4.36913L6.92181 4.4745L2.85587 13.8192L2.82543 13.8891H2.90172H11.0336ZM26.3031 4.4745L26.2572 4.36913L26.2114 4.4745L22.1454 13.8192L22.115 13.8891H22.1913H30.3232H30.3995L30.369 13.8192L26.3031 4.4745ZM21.8172 15.5558H21.7562L21.7681 15.6156C22.1838 17.7039 24.0377 19.2833 26.2572 19.2833C28.4769 19.2833 30.3264 17.7038 30.7504 15.6158L30.7626 15.5558H30.7014H21.8172ZM15.732 2.35969C15.732 2.84558 16.1246 3.23578 16.6124 3.23578C17.1004 3.23578 17.4929 2.84133 17.4929 2.35969C17.4929 1.87379 17.1003 1.48359 16.6124 1.48359C16.1246 1.48359 15.732 1.87379 15.732 2.35969Z" fill="#C4C4C4" stroke="white" stroke-width="0.1"/>
</svg>
