<svg width="20" height="21" viewBox="0 0 20 21" fill="none" xmlns="http://www.w3.org/2000/svg">
<path d="M15.7126 19.7896H2.04501C1.96524 19.7896 1.88625 19.774 1.81255 19.7436C1.73885 19.7133 1.67188 19.6688 1.61548 19.6127C1.55907 19.5566 1.51432 19.4899 1.4838 19.4166C1.45327 19.3433 1.43756 19.2647 1.43756 19.1854V1.81285C1.43756 1.7335 1.45327 1.65492 1.4838 1.58161C1.51432 1.5083 1.55907 1.44168 1.61548 1.38557C1.67188 1.32946 1.73885 1.28495 1.81255 1.25458C1.88625 1.22422 1.96524 1.20859 2.04501 1.20859H10.853V5.58949C10.853 6.07027 11.045 6.53136 11.3868 6.87132C11.7286 7.21128 12.1921 7.40227 12.6754 7.40227H16.9275V10.9961C16.9275 11.1564 16.9915 11.3101 17.1055 11.4234C17.2194 11.5367 17.3739 11.6004 17.535 11.6004C17.6961 11.6004 17.8506 11.5367 17.9645 11.4234C18.0784 11.3101 18.1424 11.1564 18.1424 10.9961V6.79801V6.78895C18.1427 6.75242 18.1391 6.71597 18.1318 6.68018V6.66054C18.125 6.63281 18.1164 6.60556 18.106 6.57897L18.0923 6.54724C18.0812 6.5233 18.0685 6.50008 18.0544 6.47775C18.0499 6.46936 18.0448 6.46129 18.0392 6.45358C18.0205 6.42587 17.9992 6.40007 17.9754 6.37654L11.9009 0.182852L11.8872 0.169256C11.863 0.148077 11.8371 0.128879 11.8098 0.111852L11.7824 0.0937237C11.761 0.0801697 11.7387 0.0680574 11.7156 0.057468L11.6883 0.0438721C11.6554 0.0303511 11.6213 0.0197356 11.5865 0.0121483C11.5497 0.00349506 11.512 -0.00056459 11.4742 6.30625e-05H2.04501C1.80569 6.30598e-05 1.56872 0.0469521 1.34762 0.138053C1.12653 0.229154 0.925632 0.362683 0.756411 0.531016C0.58719 0.699349 0.452956 0.899189 0.361374 1.11913C0.269793 1.33906 0.222656 1.57479 0.222656 1.81285V19.1854C0.222656 19.4234 0.269793 19.6592 0.361374 19.8791C0.452956 20.099 0.58719 20.2989 0.756411 20.4672C0.925632 20.6355 1.12653 20.7691 1.34762 20.8602C1.56872 20.9513 1.80569 20.9982 2.04501 20.9982H15.7126C15.8737 20.9982 16.0283 20.9345 16.1422 20.8212C16.2561 20.7079 16.3201 20.5542 16.3201 20.3939C16.3201 20.2336 16.2561 20.08 16.1422 19.9666C16.0283 19.8533 15.8737 19.7896 15.7126 19.7896ZM12.6754 6.19375C12.5143 6.19375 12.3598 6.13009 12.2459 6.01676C12.1319 5.90344 12.0679 5.74975 12.0679 5.58949V2.0893L16.0923 6.19375H12.6754Z" fill="#C4C4C4"/>
<path d="M8.72684 3.745H3.41165C3.25054 3.745 3.09604 3.80866 2.98212 3.92198C2.8682 4.0353 2.8042 4.189 2.8042 4.34926C2.8042 4.50952 2.8682 4.66321 2.98212 4.77653C3.09604 4.88985 3.25054 4.95352 3.41165 4.95352H8.72684C8.88795 4.95352 9.04246 4.88985 9.15638 4.77653C9.2703 4.66321 9.33429 4.50952 9.33429 4.34926C9.33429 4.189 9.2703 4.0353 9.15638 3.92198C9.04246 3.80866 8.88795 3.745 8.72684 3.745ZM9.33429 8.27695C9.33429 8.1976 9.31858 8.11902 9.28805 8.04571C9.25753 7.9724 9.21278 7.90579 9.15638 7.84967C9.09997 7.79356 9.033 7.74905 8.9593 7.71869C8.8856 7.68832 8.80661 7.67269 8.72684 7.67269H3.41165C3.25054 7.67269 3.09604 7.73635 2.98212 7.84967C2.8682 7.963 2.8042 8.11669 2.8042 8.27695C2.8042 8.43721 2.8682 8.59091 2.98212 8.70423C3.09604 8.81755 3.25054 8.88121 3.41165 8.88121H8.72684C8.80661 8.88121 8.8856 8.86558 8.9593 8.83522C9.033 8.80485 9.09997 8.76034 9.15638 8.70423C9.21278 8.64812 9.25753 8.5815 9.28805 8.50819C9.31858 8.43488 9.33429 8.3563 9.33429 8.27695ZM6.75263 11.6004H3.41165C3.25054 11.6004 3.09604 11.664 2.98212 11.7774C2.8682 11.8907 2.8042 12.0444 2.8042 12.2046C2.8042 12.3649 2.8682 12.5186 2.98212 12.6319C3.09604 12.7452 3.25054 12.8089 3.41165 12.8089H6.75263C6.91373 12.8089 7.06824 12.7452 7.18216 12.6319C7.29608 12.5186 7.36008 12.3649 7.36008 12.2046C7.36008 12.0444 7.29608 11.8907 7.18216 11.7774C7.06824 11.664 6.91373 11.6004 6.75263 11.6004ZM6.75263 15.5281H3.41165C3.25054 15.5281 3.09604 15.5917 2.98212 15.7051C2.8682 15.8184 2.8042 15.9721 2.8042 16.1323C2.8042 16.2926 2.8682 16.4463 2.98212 16.5596C3.09604 16.6729 3.25054 16.7366 3.41165 16.7366H6.75263C6.91373 16.7366 7.06824 16.6729 7.18216 16.5596C7.29608 16.4463 7.36008 16.2926 7.36008 16.1323C7.36008 15.9721 7.29608 15.8184 7.18216 15.7051C7.06824 15.5917 6.91373 15.5281 6.75263 15.5281ZM19.4833 19.9664L16.7209 17.2215C17.3077 16.4228 17.5699 15.4332 17.4551 14.4505C17.3403 13.4679 16.8569 12.5645 16.1016 11.9209C15.3463 11.2774 14.3746 10.941 13.3808 10.9792C12.3871 11.0173 11.4443 11.4271 10.7411 12.1267C10.0379 12.8262 9.62593 13.764 9.58759 14.7525C9.54924 15.7411 9.88732 16.7076 10.5343 17.459C11.1812 18.2104 12.0894 18.6912 13.0773 18.8054C14.0651 18.9196 15.0599 18.6588 15.8629 18.075L18.6237 20.8229C18.7377 20.9363 18.8923 21 19.0535 21C19.2147 21 19.3693 20.9363 19.4833 20.8229C19.5973 20.7095 19.6613 20.5558 19.6613 20.3954C19.6613 20.2351 19.5973 20.0813 19.4833 19.9679V19.9664ZM10.8271 14.9117C10.8271 14.376 10.9868 13.8522 11.2861 13.4068C11.5854 12.9613 12.0107 12.6141 12.5083 12.4092C13.006 12.2042 13.5535 12.1507 14.0818 12.2553C14.61 12.3599 15.0952 12.618 15.4759 12.997C15.8567 13.376 16.1159 13.8587 16.2208 14.3842C16.3257 14.9098 16.2715 15.4544 16.0652 15.9493C15.8589 16.4442 15.5096 16.8671 15.0617 17.1646C14.6137 17.462 14.0871 17.6206 13.5485 17.6203C13.1906 17.6207 12.8361 17.551 12.5053 17.4151C12.1745 17.2791 11.8739 17.0797 11.6206 16.8282C11.3673 16.5766 11.1663 16.2779 11.0291 15.9491C10.8919 15.6203 10.8212 15.2678 10.821 14.9117H10.8271Z" fill="#C4C4C4"/>
</svg>
