<svg width="44" height="30" viewBox="0 0 44 30" fill="none" xmlns="http://www.w3.org/2000/svg">
<path d="M43.5311 20.4494V20.4495C43.5367 22.8172 42.5763 24.9614 41.0238 26.5139C39.4712 28.0665 37.3325 29.0269 34.9705 29.0269C30.2463 29.0269 26.4042 25.1793 26.4042 20.455V20.455V20.4549V20.4549V20.4549V20.4548V20.4548V20.4548V20.4548V20.4547V20.4547V20.4547V20.4546V20.4546V20.4546V20.4545V20.4545V20.4545V20.4544V20.4544V20.4544V20.4543V20.4543V20.4543V20.4543V20.4542V20.4542V20.4542V20.4541V20.4541V20.4541V20.4541V20.454V20.454V20.454V20.4539V20.4539V20.4539V20.4539V20.4538V20.4538V20.4538V20.4537V20.4537V20.4537V20.4537V20.4536V20.4536V20.4536V20.4535V20.4535V20.4535V20.4535V20.4534V20.4534V20.4534V20.4534V20.4533V20.4533V20.4533V20.4533V20.4532V20.4532V20.4532V20.4532V20.4531V20.4531V20.4531V20.4531V20.453V20.453V20.453V20.453V20.4529V20.4529V20.4529V20.4529V20.4528V20.4528V20.4528V20.4528V20.4527V20.4527V20.4527V20.4527V20.4527V20.4526V20.4526V20.4526V20.4526V20.4525V20.4525V20.4525V20.4525V20.4525V20.4524V20.4524V20.4524V20.4524V20.4523V20.4523V20.4523V20.4523V20.4523V20.4522V20.4522V20.4522V20.4522V20.4522V20.4521V20.4521V20.4521V20.4521V20.4521V20.452V20.452V20.452V20.452V20.452V20.4519V20.4519V20.4519V20.4519V20.4519V20.4518V20.4518V20.4518V20.4518V20.4518V20.4517V20.4517V20.4517V20.4517V20.4517V20.4517V20.4516V20.4516V20.4516V20.4516V20.4516V20.4515V20.4515V20.4515V20.4515V20.4515V20.4515V20.4514V20.4514V20.4514V20.4514V20.4514V20.4514V20.4513V20.4513V20.4513V20.4513V20.4513V20.4513V20.4513V20.4512V20.4512V20.4512V20.4512V20.4512V20.4512V20.4511V20.4511V20.4511V20.4511V20.4511V20.4511V20.451V20.451V20.451V20.4509V20.4509V20.4509V20.4509V20.4508V20.4508V20.4508V20.4508V20.4507V20.4507V20.4507V20.4507V20.4506V20.4506V20.4506V20.4506V20.4505V20.4505V20.4505V20.4505V20.4505V20.4504V20.4504V20.4504V20.4504V20.4504V20.4503V20.4503V20.4503V20.4503V20.4503V20.4502V20.4502V20.4502V20.4502V20.4502V20.4501V20.4501V20.4501V20.4501V20.4501V20.4501V20.45V20.45V20.45V20.45V20.45V20.45V20.4499V20.4499V20.4499V20.4499V20.4499V20.4498V20.4498V20.4498V20.4498V20.4498V20.4498V20.4497V20.4497V20.4497V20.4497V20.4497V20.4497V20.4496V20.4496V20.4496V20.4496V20.4496V20.4496V20.4495V20.4495V20.4495V20.4495V20.4495V20.4495V20.4495V20.4494V20.4494V20.4494C26.4042 20.4104 26.4116 20.3701 26.4224 20.3267C26.4245 20.3185 26.4266 20.3102 26.4289 20.3019C26.4325 20.2884 26.4363 20.2747 26.4403 20.2607C26.4466 20.2384 26.4531 20.2152 26.4589 20.1919C26.4658 20.1643 26.4703 20.1349 26.4743 20.1086C26.4755 20.1003 26.4768 20.0922 26.478 20.0846C26.4835 20.0511 26.4897 20.0228 26.5009 19.9983L26.5053 19.9884V19.9823L33.1516 4.62976L33.1818 4.5599H33.1057H24.8321H24.7974L24.7852 4.59236C24.3317 5.80358 23.1648 6.66621 21.7934 6.66621C20.4219 6.66621 19.255 5.80358 18.8015 4.59236L18.7893 4.5599H18.7546H10.481H10.4049L10.4351 4.62976L17.0814 19.9823V19.9884L17.0859 19.9983C17.097 20.0228 17.1032 20.0511 17.1087 20.0846C17.1099 20.0922 17.1112 20.1003 17.1124 20.1086C17.1164 20.1349 17.1209 20.1643 17.1278 20.1919C17.1336 20.2151 17.1401 20.2381 17.1463 20.2604L17.1464 20.2607C17.1528 20.2833 17.1589 20.3051 17.1643 20.3267C17.1751 20.3701 17.1825 20.4104 17.1825 20.4494V20.4494V20.4495V20.4495V20.4495V20.4496V20.4496V20.4496V20.4497V20.4497V20.4497V20.4498V20.4498V20.4498V20.4498V20.4499V20.4499V20.4499V20.45V20.45V20.45V20.4501V20.4501V20.4501V20.4501V20.4502V20.4502V20.4502V20.4503V20.4503V20.4503V20.4504V20.4504V20.4504V20.4504V20.4505V20.4505V20.4505V20.4506V20.4506V20.4506V20.4506V20.4507V20.4507V20.4507V20.4508V20.4508V20.4508V20.4508V20.4509V20.4509V20.4509V20.4509V20.451V20.451V20.451V20.451V20.4511V20.4511V20.4511V20.4511V20.4512V20.4512V20.4512V20.4513V20.4513V20.4513V20.4513V20.4513V20.4514V20.4514V20.4514V20.4514V20.4515V20.4515V20.4515V20.4515V20.4516V20.4516V20.4516V20.4516V20.4517V20.4517V20.4517V20.4517V20.4518V20.4518V20.4518V20.4518V20.4518V20.4519V20.4519V20.4519V20.4519V20.452V20.452V20.452V20.452V20.452V20.4521V20.4521V20.4521V20.4521V20.4522V20.4522V20.4522V20.4522V20.4522V20.4523V20.4523V20.4523V20.4523V20.4523V20.4524V20.4524V20.4524V20.4524V20.4524V20.4525V20.4525V20.4525V20.4525V20.4525V20.4525V20.4526V20.4526V20.4526V20.4526V20.4526V20.4527V20.4527V20.4527V20.4527V20.4527V20.4528V20.4528V20.4528V20.4528V20.4528V20.4528V20.4529V20.4529V20.4529V20.4529V20.4529V20.4529V20.453V20.453V20.453V20.453V20.453V20.453V20.4531V20.4531V20.4531V20.4531V20.4531V20.4531V20.4532V20.4532V20.4532V20.4532V20.4532V20.4532V20.4532V20.4533V20.4533V20.4533V20.4533V20.4533V20.4534V20.4534V20.4534V20.4534V20.4535V20.4535V20.4535V20.4535V20.4536V20.4536V20.4536V20.4536V20.4537V20.4537V20.4537V20.4537V20.4538V20.4538V20.4538V20.4538V20.4539V20.4539V20.4539V20.4539V20.4539V20.454V20.454V20.454V20.454V20.4541V20.4541V20.4541V20.4541V20.4541V20.4542V20.4542V20.4542V20.4542V20.4542V20.4542V20.4543V20.4543V20.4543V20.4543V20.4543V20.4543V20.4544V20.4544V20.4544V20.4544V20.4544V20.4544V20.4545V20.4545V20.4545V20.4545V20.4545V20.4546V20.4546V20.4546V20.4546V20.4546V20.4546V20.4547V20.4547V20.4547V20.4547V20.4547V20.4547V20.4548V20.4548V20.4548V20.4548V20.4548V20.4548V20.4549V20.4549V20.4549V20.4549V20.4549V20.4549V20.455V20.455V20.455V20.455C17.1825 22.8171 16.222 24.9614 14.6695 26.5139C13.117 28.0665 10.9783 29.0269 8.61624 29.0269C3.89204 29.0269 0.05 25.1793 0.05 20.455V20.455V20.4549V20.4549V20.4549V20.4548V20.4548V20.4548V20.4548V20.4547V20.4547V20.4547V20.4546V20.4546V20.4546V20.4545V20.4545V20.4545V20.4544V20.4544V20.4544V20.4543V20.4543V20.4543V20.4543V20.4542V20.4542V20.4542V20.4541V20.4541V20.4541V20.4541V20.454V20.454V20.454V20.4539V20.4539V20.4539V20.4539V20.4538V20.4538V20.4538V20.4537V20.4537V20.4537V20.4537V20.4536V20.4536V20.4536V20.4535V20.4535V20.4535V20.4535V20.4534V20.4534V20.4534V20.4534V20.4533V20.4533V20.4533V20.4533V20.4532V20.4532V20.4532V20.4532V20.4531V20.4531V20.4531V20.4531V20.453V20.453V20.453V20.453V20.4529V20.4529V20.4529V20.4529V20.4528V20.4528V20.4528V20.4528V20.4527V20.4527V20.4527V20.4527V20.4527V20.4526V20.4526V20.4526V20.4526V20.4525V20.4525V20.4525V20.4525V20.4525V20.4524V20.4524V20.4524V20.4524V20.4523V20.4523V20.4523V20.4523V20.4523V20.4522V20.4522V20.4522V20.4522V20.4522V20.4521V20.4521V20.4521V20.4521V20.4521V20.452V20.452V20.452V20.452V20.452V20.4519V20.4519V20.4519V20.4519V20.4519V20.4518V20.4518V20.4518V20.4518V20.4518V20.4517V20.4517V20.4517V20.4517V20.4517V20.4517V20.4516V20.4516V20.4516V20.4516V20.4516V20.4515V20.4515V20.4515V20.4515V20.4515V20.4515V20.4514V20.4514V20.4514V20.4514V20.4514V20.4514V20.4513V20.4513V20.4513V20.4513V20.4513V20.4513V20.4513V20.4512V20.4512V20.4512V20.4512V20.4512V20.4512V20.4511V20.4511V20.4511V20.4511V20.4511V20.4511V20.451V20.451V20.451V20.4509V20.4509V20.4509V20.4509V20.4508V20.4508V20.4508V20.4508V20.4507V20.4507V20.4507V20.4507V20.4506V20.4506V20.4506V20.4506V20.4505V20.4505V20.4505V20.4505V20.4505V20.4504V20.4504V20.4504V20.4504V20.4504V20.4503V20.4503V20.4503V20.4503V20.4503V20.4502V20.4502V20.4502V20.4502V20.4502V20.4501V20.4501V20.4501V20.4501V20.4501V20.4501V20.45V20.45V20.45V20.45V20.45V20.45V20.4499V20.4499V20.4499V20.4499V20.4499V20.4498V20.4498V20.4498V20.4498V20.4498V20.4498V20.4497V20.4497V20.4497V20.4497V20.4497V20.4497V20.4496V20.4496V20.4496V20.4496V20.4496V20.4496V20.4495V20.4495V20.4495V20.4495V20.4495V20.4495V20.4495V20.4494V20.4494V20.4494C0.0316987 20.4494 0.0133975 20.4494 0 20.4494H0.05C0.05 20.4104 0.0573245 20.3701 0.0681661 20.3267C0.0735761 20.3051 0.0796932 20.2833 0.0860462 20.2607L0.0861261 20.2604C0.0923863 20.2382 0.0988765 20.2151 0.104676 20.1919C0.111585 20.1643 0.11604 20.1349 0.120041 20.1086C0.121309 20.1003 0.12253 20.0922 0.12377 20.0846C0.129252 20.0511 0.135458 20.0228 0.146622 19.9983L0.151103 19.9884V19.9823L7.54999 2.89416L7.55 2.89416L7.55043 2.89311C7.81798 2.23451 8.49946 2.181 8.60998 2.17232C8.61338 2.17206 8.61623 2.17183 8.61852 2.17163H18.8445H18.8764L18.8899 2.1427C19.3988 1.04741 20.505 0.284375 21.7934 0.284375C23.082 0.284375 24.1935 1.042 24.6967 2.14243L24.7101 2.17163H24.7422H34.9682C34.9708 2.17185 34.974 2.17209 34.9779 2.17239C35.0923 2.18094 35.7696 2.23156 36.0362 2.89299L36.0367 2.89414L43.43 19.9823V19.9884L43.4345 19.9983C43.4456 20.0228 43.4518 20.0511 43.4573 20.0846C43.4586 20.0922 43.4598 20.1003 43.461 20.1086C43.465 20.135 43.4695 20.1643 43.4764 20.1919C43.4822 20.2151 43.4887 20.2381 43.4949 20.2603L43.495 20.2607C43.5014 20.2833 43.5075 20.3051 43.5129 20.3267C43.5238 20.3701 43.5311 20.4104 43.5311 20.4494ZM2.55005 21.6183H2.48917L2.501 21.678C3.06722 24.5374 5.59245 26.7004 8.61624 26.7004C11.64 26.7004 14.1652 24.5374 14.7371 21.6781L14.749 21.6183H14.688H2.55005ZM14.1713 19.2918H14.2474L14.2172 19.2219L8.66212 6.38743L8.61624 6.28141L8.57035 6.38743L3.01529 19.2219L2.98506 19.2918H3.06118H14.1713ZM35.0164 6.38743L34.9705 6.28141L34.9246 6.38743L29.3695 19.2219L29.3393 19.2918H29.4154H40.5255H40.6016L40.5714 19.2219L35.0164 6.38743ZM28.9043 21.6183H28.8434L28.8552 21.678C29.4214 24.5374 31.9467 26.7004 34.9705 26.7004C37.9943 26.7004 40.5138 24.5373 41.0913 21.6782L41.1034 21.6183H41.0423H28.9043ZM20.6087 3.47529C20.6087 4.13199 21.1367 4.6599 21.7934 4.6599C22.4502 4.6599 22.978 4.12622 22.978 3.47529C22.978 2.81859 22.4501 2.29069 21.7934 2.29069C21.1367 2.29069 20.6087 2.81859 20.6087 3.47529Z" fill="black" stroke="black" stroke-width="0.1"/>
</svg>
