<svg width="44" height="44" viewBox="0 0 44 44" fill="none" xmlns="http://www.w3.org/2000/svg">
<path d="M18.3862 43.3821C17.4087 43.0097 16.9898 42.265 16.8967 41.2409C16.8036 40.0773 16.6174 38.9601 16.4778 37.843C16.4312 37.5637 16.3381 37.3775 16.0588 37.2844C15.5934 37.1448 15.1744 36.9586 14.709 36.7258C14.4297 36.5862 14.2435 36.6328 14.0108 36.819C13.0333 37.6103 12.0558 38.355 11.0783 39.1463C10.1008 39.9376 9.16983 39.8911 8.28543 39.0067C6.9821 37.7033 5.67878 36.4 4.422 35.1432C3.49105 34.2123 3.4445 33.3279 4.28235 32.3039C5.02711 31.3264 5.81842 30.3489 6.56318 29.4179C6.74937 29.1852 6.79591 28.9524 6.65627 28.6732C6.42353 28.2542 6.33044 27.7888 6.0977 27.3698C6.00461 27.1836 5.77187 26.9975 5.63223 26.9975C4.422 26.8113 3.16522 26.6716 1.90844 26.532C0.651666 26.3923 0 25.6941 0 24.4374C0 22.5755 0 20.7136 0 18.8517C0 17.688 0.651664 16.9898 1.7688 16.8501C3.02558 16.7105 4.28236 16.5243 5.53914 16.4312C5.86497 16.3847 6.05116 16.245 6.1908 15.9192C6.33044 15.5003 6.51663 15.0813 6.70282 14.6624C6.84246 14.3831 6.79591 14.1969 6.60972 13.9642C5.81842 12.9867 5.07366 12.0092 4.28235 11.0317C3.49105 10.0542 3.5376 9.12328 4.422 8.23888C4.70128 7.95959 4.98057 7.63377 5.3064 7.35448C5.63223 7.0752 5.95806 7.07519 6.23735 7.30793C6.47008 7.54067 6.51663 7.91305 6.23735 8.23888C5.95806 8.56471 5.63223 8.844 5.35294 9.12328C4.98057 9.54221 4.93402 9.7284 5.3064 10.1473C6.09771 11.1248 6.84246 12.1489 7.63377 13.1263C8.14579 13.778 8.23888 14.4297 7.86651 15.1744C7.68032 15.5934 7.49412 16.0123 7.35448 16.4312C7.0752 17.176 6.56318 17.5483 5.81842 17.6414C4.56164 17.7811 3.30486 17.9207 2.04808 18.1069C1.44297 18.1535 1.30333 18.3397 1.30333 18.8982C1.30333 20.7601 1.30333 22.5755 1.30333 24.4374C1.30333 25.0425 1.44297 25.1821 2.04808 25.2287C3.30486 25.3683 4.56164 25.5079 5.81842 25.6941C6.56318 25.7872 7.0752 26.1596 7.35448 26.9044C7.54067 27.3698 7.72686 27.8353 7.9596 28.3008C8.23888 28.9524 8.14579 29.511 7.72686 30.0696C6.93556 31.0936 6.14425 32.0711 5.35294 33.0952C4.93402 33.6537 4.93402 33.7934 5.39949 34.3054C6.70282 35.6087 7.9596 36.8655 9.26293 38.1688C9.68185 38.5877 9.86804 38.6343 10.3335 38.2619C11.3575 37.4706 12.335 36.6793 13.3591 35.888C13.9642 35.4225 14.5693 35.3294 15.2675 35.6553C15.7796 35.888 16.2916 36.0742 16.8036 36.3069C17.3156 36.5397 17.688 36.912 17.7811 37.5172C17.9673 38.8205 18.1069 40.1704 18.2931 41.4737C18.3862 42.1253 18.5258 42.265 19.131 42.265C20.9463 42.265 22.8082 42.265 24.6235 42.265C25.2287 42.265 25.3683 42.1253 25.4149 41.5202C25.5545 40.2635 25.6941 39.0067 25.8803 37.7499C25.9734 37.0051 26.3458 36.4931 27.0906 36.2138C27.556 36.0742 27.975 35.888 28.4404 35.6553C29.1386 35.3294 29.7437 35.4225 30.3489 35.888C31.3264 36.6793 32.3039 37.4241 33.2813 38.2154C33.8399 38.6343 33.9796 38.6343 34.4916 38.1688C35.7484 36.912 37.0517 35.6087 38.3085 34.3519C38.7739 33.8865 38.7739 33.7003 38.4016 33.1883C37.6103 32.2108 36.8655 31.2333 36.0742 30.2558C35.5622 29.6507 35.4691 28.999 35.8415 28.3008C36.0276 27.8819 36.2138 27.4629 36.4 26.9975C36.6793 26.2527 37.1913 25.8803 37.9361 25.7872C39.1929 25.6476 40.4496 25.5079 41.7064 25.3218C42.3115 25.2752 42.4512 25.089 42.4512 24.5304C42.4512 22.6686 42.4512 20.8532 42.4512 18.9913C42.4512 18.3862 42.3115 18.2466 41.7064 18.2C40.4496 18.0604 39.1929 17.9207 37.9361 17.7345C37.1913 17.6414 36.6793 17.2691 36.4 16.5243C36.2138 16.0588 36.0276 15.5934 35.7949 15.1279C35.5156 14.4762 35.6087 13.9177 36.0276 13.3591C36.819 12.335 37.6103 11.3575 38.4016 10.3335C38.8205 9.77494 38.8205 9.6353 38.3085 9.12328C37.0517 7.8665 35.7949 6.60972 34.5381 5.35294C34.0727 4.88747 33.8865 4.88747 33.3279 5.30639C32.3504 6.05115 31.3729 6.79591 30.442 7.58722C29.8368 8.09924 29.1852 8.19233 28.487 7.81995C28.0215 7.58722 27.5095 7.40103 27.044 7.21484C26.4854 6.9821 26.1131 6.56318 26.02 5.95806C25.8338 4.65474 25.6941 3.30486 25.5545 2.00154C25.5079 1.39642 25.3218 1.25678 24.7632 1.25678C22.9013 1.25678 21.0859 1.25678 19.2241 1.25678C18.6189 1.25678 18.4793 1.39642 18.4328 2.00154C18.2931 3.25832 18.1535 4.51509 17.9673 5.77187C17.8742 6.51662 17.5018 7.02865 16.757 7.30793C16.2916 7.49412 15.8261 7.68031 15.3606 7.91305C14.709 8.19233 14.1504 8.09924 13.5918 7.68031C12.5678 6.88901 11.5903 6.0977 10.5662 5.30639C10.0077 4.88747 9.86804 4.88747 9.35602 5.39949C9.07673 5.67878 8.844 5.91151 8.56472 6.1908C8.23888 6.47008 7.86651 6.47008 7.63377 6.23734C7.35448 5.95806 7.40103 5.63223 7.68031 5.30639C7.9596 4.98056 8.28543 4.70128 8.56472 4.422C9.40257 3.63069 10.3335 3.58414 11.2179 4.28235C12.1954 5.07366 13.2194 5.81842 14.1969 6.60972C14.4297 6.79591 14.6624 6.84246 14.9417 6.70281C15.3606 6.47008 15.7796 6.33044 16.245 6.14425C16.5243 6.05115 16.6174 5.91152 16.6639 5.63223C16.8036 4.37545 16.9432 3.11867 17.0829 1.86189C17.2225 0.651663 17.9207 0 19.131 0C20.9929 0 22.8547 0 24.7632 0C25.8803 0 26.6251 0.605114 26.7647 1.72225C26.9044 2.97903 27.0906 4.23581 27.1837 5.49259C27.2302 5.86497 27.3698 6.05115 27.6957 6.14425C28.1146 6.28389 28.5335 6.47008 28.9524 6.65627C29.1852 6.79591 29.3714 6.74937 29.6041 6.56318C30.5816 5.77187 31.6056 4.98057 32.5831 4.23581C33.5606 3.49105 34.4916 3.49105 35.3294 4.37545C36.6328 5.67877 37.9361 6.9821 39.286 8.33197C40.1238 9.16982 40.1704 10.1008 39.4256 11.0783C38.6808 12.0558 37.8895 13.0333 37.0982 14.0108C36.912 14.2435 36.8189 14.4762 37.0051 14.7555C37.2379 15.1744 37.3775 15.5934 37.5637 16.0588C37.6568 16.3381 37.7964 16.4312 38.0757 16.4778C39.3325 16.6174 40.5893 16.8036 41.8461 16.8967C42.777 16.9898 43.3821 17.5018 43.708 18.3396C43.708 20.6205 43.708 22.8547 43.708 25.1356C43.3821 25.9734 42.777 26.4854 41.8461 26.5785C40.5893 26.7182 39.3325 26.8578 38.0757 26.9975C37.7964 27.044 37.6568 27.1371 37.5637 27.4164C37.3775 27.8819 37.2379 28.3008 37.0051 28.7663C36.8655 29.0455 36.912 29.2317 37.0982 29.4645C37.8895 30.442 38.6343 31.4195 39.4256 32.397C40.2169 33.421 40.1704 34.3054 39.2394 35.2363C37.9361 36.5397 36.6793 37.7964 35.376 39.0998C34.445 40.0307 33.5606 40.0773 32.5366 39.286C31.5591 38.4946 30.5816 37.7499 29.6041 36.9586C29.3714 36.7724 29.1852 36.7258 28.9059 36.8655C28.487 37.0982 28.0215 37.2379 27.556 37.4241C27.2767 37.5172 27.1836 37.6568 27.1371 37.9361C26.9975 39.0998 26.8113 40.2169 26.7182 41.3806C26.6251 42.4046 26.2062 43.1494 25.2287 43.5218C22.9478 43.3821 20.667 43.3821 18.3862 43.3821Z" fill="#1E1C1C"/>
<path d="M21.7843 20.155C22.3429 19.643 22.8084 19.1775 23.3204 18.6655C23.4135 18.5724 23.46 18.3862 23.46 18.2466C23.46 17.176 23.46 16.1054 23.46 15.0348C23.46 14.5694 23.5997 14.1504 24.0186 13.9177C24.4375 13.6849 24.903 13.778 25.2754 14.0108C29.2784 16.5709 29.1388 22.4824 25.0426 24.9029C24.7168 25.0891 24.6237 25.2752 24.6702 25.6011C24.6702 27.3233 24.6702 29.0456 24.6702 30.7678C24.6702 30.9075 24.6702 31.0937 24.6702 31.2798C24.9961 31.1868 25.2754 31.0937 25.5081 31.0006C31.6058 28.5801 33.8401 21.2256 30.1163 15.8261C29.9766 15.6399 29.837 15.4072 29.8835 15.2676C29.9301 15.0348 30.1163 14.8021 30.3025 14.6624C30.5818 14.5228 30.861 14.6624 31.0472 14.9417C31.792 15.9658 32.3506 17.0829 32.7229 18.2931C34.6779 24.8563 30.4887 31.6057 23.7858 32.7694C17.5485 33.8865 11.4974 29.511 10.613 23.2272C9.682 16.8502 14.1506 11.0783 20.5275 10.287C23.5066 9.91462 26.2529 10.7059 28.6733 12.5213C29.1388 12.8936 29.1853 13.3591 28.7664 13.6384C28.4406 13.8711 28.1613 13.7315 27.882 13.4988C26.6718 12.5678 25.2754 11.9627 23.7858 11.6834C18.2933 10.5663 12.7076 14.4297 11.9163 20.0154C11.1715 24.9494 13.9178 29.4645 18.5725 31.1402C18.7122 31.1868 18.8518 31.2333 19.0846 31.2798C19.0846 30.9075 19.0846 30.6282 19.0846 30.3024C19.0846 29.8369 19.3173 29.6041 19.6897 29.6041C20.0621 29.6041 20.3413 29.8369 20.3413 30.3024C20.3413 30.7213 20.3413 31.1402 20.3413 31.5591C20.6672 31.6057 20.8999 31.6057 21.2723 31.6522C21.2723 31.2333 21.2723 30.8609 21.2723 30.4885C21.2723 29.7438 21.2723 29.0456 21.2723 28.3008C21.2723 27.6957 21.505 27.463 21.924 27.463C22.3429 27.463 22.5291 27.7423 22.5291 28.3008C22.5291 29.2318 22.5291 30.2093 22.5291 31.1402C22.5291 31.2798 22.5291 31.466 22.5291 31.6522C22.8549 31.6057 23.1342 31.6057 23.4135 31.5591C23.4135 29.5576 23.4135 27.6026 23.4135 25.6476C22.3894 25.6476 21.4119 25.6476 20.3413 25.6476C20.3413 26.1131 20.3879 26.6251 20.3413 27.1371C20.3413 27.3699 20.1552 27.6026 19.969 27.7423C19.8293 27.8353 19.5035 27.7888 19.3639 27.6957C19.2242 27.6026 19.1311 27.3233 19.0846 27.1371C19.038 26.6251 19.038 26.0665 19.0846 25.5545C19.0846 25.2287 18.9915 25.0425 18.7122 24.8563C14.5695 22.4824 14.4764 16.4778 18.4794 13.9642C19.2242 13.4988 20.0621 13.778 20.2482 14.5694C20.2948 14.709 20.2948 14.8952 20.2948 15.0348C20.2948 16.1054 20.2948 17.176 20.2948 18.2466C20.2948 18.3862 20.3413 18.5724 20.4344 18.7121C20.8068 19.1775 21.2723 19.643 21.7843 20.155ZM18.8984 15.221C17.083 16.2916 16.2452 18.8517 16.9434 20.9929C17.6881 23.2272 19.969 24.7632 22.2498 24.4839C24.7168 24.2047 26.6252 22.2962 26.858 19.9223C27.0442 18.0604 25.927 15.6865 24.6702 15.3141C24.6702 16.3847 24.7168 17.4553 24.6702 18.5259C24.6702 18.8517 24.4841 19.2706 24.2513 19.5034C23.7393 20.0619 23.1342 20.6205 22.5756 21.1325C22.017 21.6445 21.4119 21.6445 20.8999 21.086C20.3879 20.574 19.9224 20.0619 19.4104 19.5965C19.0846 19.2706 18.8984 18.8983 18.8984 18.4328C18.9449 17.3622 18.8984 16.3381 18.8984 15.221Z" fill="#1E1C1C"/>
</svg>
